# Blender v3.0.0 OBJ File: 'FBX_to_OBJ.blend'
# www.blender.org
mtllib SM_hill_small1.mtl
o rpgpp_lt_hill_small_01_rpgpp_lt_hill_small_01.001
v -49.781330 -0.175544 9.905688
v -50.001522 0.024288 4.867141
v -43.343040 -0.001087 24.666418
v -48.163219 -0.129071 16.220705
v -42.160225 5.580558 2.163638
v -41.342804 8.094218 -8.678997
v -43.220203 0.004418 -28.181431
v -36.772026 0.067950 31.264956
v -37.155312 11.333496 -15.100305
v -36.192211 9.062336 -22.037607
v -30.936958 9.434877 8.365058
v -27.414486 11.387363 -22.998840
v -3.423764 0.010443 37.973694
v -2.716447 25.766623 -14.597900
v -2.986938 21.416065 -20.478012
v 3.532561 26.072916 -14.628466
v 13.008500 13.114737 -19.906830
v 23.184963 -0.017767 44.622402
v 21.293312 19.558086 -2.888822
v 28.899326 3.932947 26.529058
v 25.632414 10.424351 -12.128881
v 42.259544 -0.015310 -21.902004
v 49.776810 -0.086803 -8.594501
v -49.997952 0.005647 -15.270909
v -43.710506 4.112886 -21.340015
v -37.688385 6.198578 9.695668
v -37.304588 10.146126 -0.417052
v -30.133106 5.024369 16.805004
v -35.487392 13.434922 -8.633607
v -30.150347 16.098209 -15.546567
v -30.050779 0.085350 36.678665
v -30.989410 14.500853 -1.451054
v -29.179766 13.539823 -19.334965
v -29.910273 2.558646 -34.183311
v -13.461794 2.567659 26.383001
v -18.093060 10.078810 11.212357
v -17.768574 15.803611 -20.710375
v -21.938951 7.749085 -27.710520
v -23.437006 -0.041004 -41.830551
v -23.782537 2.128019 28.824411
v -7.927728 17.021223 5.246227
v -18.409540 21.499420 -7.210003
v -11.392281 20.611542 -18.811302
v -6.847689 12.943020 -24.171474
v -14.184470 4.518201 21.492819
v 3.177478 0.077069 -41.992863
v 3.271146 0.014152 38.980270
v 3.631571 25.874414 -7.190589
v 2.996276 20.976381 -20.330677
v 3.492739 11.309041 -24.442593
v 6.688508 2.558031 -35.725113
v 10.892824 20.899782 2.415594
v 9.981871 10.876112 -22.909515
v 12.994892 6.324412 -27.988935
v -1.286605 6.758807 -29.754791
v 9.507456 0.033620 -41.194351
v 37.172562 0.011199 39.333366
v 30.178375 -0.003355 42.812309
v 11.033319 5.072448 21.699512
v 16.874052 8.654733 -22.059896
v 13.760345 2.331667 28.228752
v 18.548534 19.241821 4.957347
v 23.473515 0.030076 -36.306465
v -36.760265 0.062090 -35.190098
v 26.612600 6.335280 21.473797
v 30.422438 16.899122 4.582149
v 22.973600 13.893843 -10.235267
v 43.143761 -0.003946 32.791542
v 37.109726 9.031337 11.891019
v 36.612640 14.207081 4.645421
v 49.766136 -0.093750 18.032721
v 45.076786 2.493295 16.750860
v 40.269108 7.090002 -0.446767
v 44.730419 -0.003402 -15.514943
v 41.978874 6.788530 8.996028
v 49.814926 0.035345 3.554146
v 45.652241 3.901193 4.229411
v 45.181767 2.211668 -3.904722
v 35.841579 0.088268 -29.244326
v 9.291145 0.013243 40.435596
v 16.736979 -0.002977 43.715168
v -25.745630 17.618309 -3.383155
v -23.383987 0.004702 37.972878
v -10.744699 24.207575 -13.830941
v -6.019944 4.884161 20.278723
v 27.910767 1.811095 37.589226
v 22.745876 12.667159 14.045738
v 14.737667 -0.033739 -40.186054
v 29.660313 5.726853 -18.806890
v 48.890457 -0.003733 22.513988
v 38.024071 4.513165 -10.271563
v 30.707687 10.768352 -7.440208
v 34.113922 13.078164 0.394474
v 36.310062 6.282641 17.759516
v 29.037373 -0.065823 -34.231438
v 29.122171 15.789791 -1.720483
v 22.902918 18.683578 1.138876
v 9.463522 18.661558 -18.687241
v 15.332847 20.813354 -11.515382
v 16.033352 22.140076 -4.101132
v 7.947753 11.201565 13.791479
v 36.754921 3.124120 26.318718
v 9.883576 24.555969 -13.800985
v 9.885787 24.804167 -6.232340
v -5.896829 25.204159 -7.604970
v 2.029178 2.407153 25.800745
v -24.124161 17.975445 -17.294708
v -23.194136 19.718885 -12.401907
v -30.206829 0.101074 -39.220978
v -31.594120 16.956062 -9.774675
v -33.340866 13.636313 -15.433660
v -48.842873 -0.035723 -20.625416
v -49.989876 -0.015026 -2.204336
vt 0.139104 0.857688
vt 0.139104 0.857688
vt 0.139104 0.857688
vt 0.139104 0.857688
vt 0.139104 0.857688
vt 0.139104 0.857688
vt 0.139104 0.857688
vt 0.139104 0.857688
vt 0.139104 0.857688
vt 0.139104 0.857688
vt 0.139104 0.857688
vt 0.139104 0.857688
vt 0.139104 0.857688
vt 0.139104 0.857688
vt 0.139104 0.857688
vt 0.139104 0.857688
vt 0.139104 0.857688
vt 0.139104 0.857688
vt 0.139104 0.857688
vt 0.139104 0.857688
vt 0.139104 0.857688
vt 0.139104 0.857688
vt 0.139104 0.857688
vt 0.139104 0.857688
vt 0.139104 0.857688
vt 0.139104 0.857688
vt 0.139104 0.857688
vt 0.139104 0.857688
vt 0.139104 0.857688
vt 0.139104 0.857688
vt 0.139104 0.857688
vt 0.139104 0.857688
vt 0.139104 0.857688
vt 0.139104 0.857688
vt 0.139104 0.857688
vt 0.139104 0.857688
vt 0.139104 0.857688
vt 0.139104 0.857688
vt 0.139104 0.857688
vt 0.139104 0.857688
vt 0.139104 0.857688
vt 0.139104 0.857688
vt 0.139104 0.857688
vt 0.139104 0.857688
vt 0.139104 0.857688
vt 0.139104 0.857688
vt 0.139104 0.857688
vt 0.139104 0.857688
vt 0.139104 0.857688
vt 0.139104 0.857688
vt 0.139104 0.857688
vt 0.139104 0.857688
vt 0.139104 0.857688
vt 0.139104 0.857688
vt 0.139104 0.857688
vt 0.139104 0.857688
vt 0.139104 0.857688
vt 0.139104 0.857688
vt 0.139104 0.857688
vt 0.139104 0.857688
vt 0.139104 0.857688
vt 0.139104 0.857688
vt 0.139104 0.857688
vt 0.139104 0.857688
vt 0.139104 0.857688
vt 0.139104 0.857688
vt 0.139104 0.857688
vt 0.139104 0.857688
vt 0.139104 0.857688
vt 0.139104 0.857688
vt 0.139104 0.857688
vt 0.139104 0.857688
vt 0.139104 0.857688
vt 0.139104 0.857688
vt 0.139104 0.857688
vt 0.139104 0.857688
vt 0.139104 0.857688
vt 0.139104 0.857688
vt 0.139104 0.857688
vt 0.139104 0.857688
vt 0.139104 0.857688
vt 0.139104 0.857688
vt 0.139104 0.857688
vt 0.139104 0.857688
vt 0.139104 0.857688
vt 0.139104 0.857688
vt 0.139104 0.857688
vt 0.139104 0.857688
vt 0.139104 0.857688
vt 0.139104 0.857688
vt 0.139104 0.857688
vt 0.139104 0.857688
vt 0.139104 0.857688
vt 0.139104 0.857688
vt 0.139104 0.857688
vt 0.139104 0.857688
vt 0.139104 0.857688
vt 0.139104 0.857688
vt 0.139104 0.857688
vt 0.139104 0.857688
vt 0.139104 0.857688
vt 0.139104 0.857688
vt 0.139104 0.857688
vt 0.139104 0.857688
vt 0.139104 0.857688
vt 0.139104 0.857688
vt 0.139104 0.857688
vt 0.139104 0.857688
vt 0.139104 0.857688
vt 0.139104 0.857688
vt 0.139104 0.857688
vt 0.139104 0.857688
vt 0.139104 0.857688
vn -0.6268 0.7778 0.0473
vn -0.5750 0.8034 0.1544
vn -0.6628 0.7481 0.0334
vn -0.6639 0.7427 -0.0875
vn -0.5617 0.7882 0.2514
vn -0.6483 0.7612 0.0170
vn -0.0349 0.9729 0.2288
vn -0.1340 0.9211 0.3655
vn -0.1639 0.9592 0.2306
vn -0.2706 0.8521 0.4480
vn -0.3660 0.8820 0.2969
vn -0.0101 0.9112 0.4118
vn -0.1549 0.8272 0.5402
vn -0.5339 0.7821 -0.3214
vn -0.4652 0.7763 -0.4254
vn -0.3289 0.7425 -0.5835
vn 0.0066 0.9517 0.3070
vn -0.3131 0.7874 -0.5310
vn -0.2603 0.9312 -0.2551
vn -0.2029 0.6774 -0.7071
vn -0.0568 0.9682 0.2437
vn -0.0222 0.9631 0.2681
vn -0.0268 0.8634 0.5038
vn -0.0641 0.7711 0.6334
vn 0.0763 0.7978 0.5981
vn 0.1069 0.8968 0.4293
vn 0.0191 0.8679 0.4964
vn 0.0401 0.8923 -0.4496
vn 0.0138 0.9270 -0.3747
vn -0.0392 0.9343 -0.3543
vn 0.5460 0.8376 0.0185
vn 0.3543 0.9226 0.1522
vn 0.0701 0.8646 0.4976
vn 0.4100 0.7901 0.4556
vn 0.3776 0.9237 0.0645
vn 0.0388 0.9738 0.2242
vn 0.0372 0.9542 0.2970
vn 0.3201 0.9461 0.0488
vn 0.3259 0.7984 -0.5063
vn 0.2096 0.8811 -0.4241
vn 0.1132 0.8943 -0.4330
vn 0.4929 0.7291 -0.4748
vn 0.4382 0.7520 -0.4925
vn 0.5300 0.6738 -0.5149
vn 0.2755 0.8786 0.3901
vn 0.2127 0.9451 0.2480
vn 0.6589 0.7507 -0.0480
vn 0.5985 0.8004 -0.0340
vn 0.3647 0.9175 -0.1589
vn 0.5093 0.8412 -0.1820
vn 0.6081 0.7112 -0.3527
vn 0.5273 0.7426 -0.4130
vn 0.1701 0.9569 0.2353
vn 0.2656 0.9427 0.2021
vn 0.4189 0.8897 -0.1816
vn 0.4737 0.8327 -0.2869
vn 0.6350 0.7420 0.2152
vn 0.5130 0.8526 0.0994
vn -0.0878 0.9789 0.1845
vn -0.1635 0.6329 -0.7568
vn -0.0439 0.5733 -0.8182
vn -0.0493 0.7505 -0.6591
vn -0.1512 0.8536 -0.4985
vn -0.1526 0.8098 0.5665
vn -0.0557 0.6305 -0.7742
vn 0.4599 0.5607 -0.6885
vn -0.0556 0.9844 0.1670
vn 0.3972 0.8774 0.2691
vn 0.3451 0.8826 -0.3191
vn 0.3774 0.8958 -0.2347
vn 0.2896 0.8965 -0.3354
vn 0.0735 0.9194 -0.3865
vn 0.0308 0.7651 -0.6432
vn 0.1531 0.8480 -0.5075
vn 0.1511 0.5917 -0.7919
vn -0.0155 0.9737 0.2272
vn -0.5043 0.8635 -0.0020
vn -0.3693 0.9252 -0.0869
vn -0.4037 0.8919 0.2040
vn 0.0110 0.9997 -0.0214
vn -0.0325 0.9831 0.1802
vn -0.0610 0.9819 0.1795
vn 0.3706 0.9163 0.1517
vn 0.4686 0.8069 -0.3596
vn 0.2278 0.8849 -0.4063
vn 0.4312 0.8110 -0.3954
vn 0.2780 0.9491 0.1481
vn 0.5878 0.6954 -0.4134
vn 0.4967 0.8494 -0.1783
vn -0.3275 0.8068 -0.4918
vn -0.1887 0.8869 -0.4216
vn -0.0018 0.9681 0.2506
vn 0.2948 0.6397 -0.7099
vn 0.4339 0.5181 -0.7371
vn -0.0648 0.8387 0.5408
vn 0.1055 0.9527 0.2851
vn 0.1692 0.5793 -0.7973
vn 0.1247 0.9244 -0.3606
vn 0.0187 0.9691 0.2461
vn -0.1669 0.9483 0.2700
vn -0.5272 0.8446 0.0934
vn -0.1003 0.9461 -0.3079
vn -0.0060 0.9751 0.2217
vn -0.3086 0.9177 0.2501
vn -0.1971 0.7686 -0.6086
vn -0.4160 0.8424 0.3426
vn -0.2821 0.8932 0.3503
vn -0.4199 0.7854 -0.4548
vn -0.5662 0.7979 -0.2067
vn -0.6364 0.7244 -0.2651
vn -0.5951 0.7316 -0.3326
vn -0.5370 0.7054 -0.4626
vn 0.7061 0.7081 -0.0028
usemtl rpgpp_lt_mat_a.013
s 1
f 113/1/1 5/2/2 6/3/3
f 24/4/4 113/1/1 6/3/3
f 27/5/5 29/6/6 6/3/3
f 40/7/7 28/8/8 8/9/9
f 28/8/8 11/10/10 26/11/11
f 11/10/10 45/12/12 36/13/13
f 111/14/14 30/15/15 33/16/16
f 40/7/7 35/17/17 28/8/8
f 28/8/8 35/17/17 11/10/10
f 107/18/18 84/19/19 43/20/20
f 40/7/7 61/21/21 106/22/22
f 35/17/17 106/22/22 85/23/23
f 101/24/24 87/25/25 62/26/26 52/27/27
f 51/28/28 46/29/29 39/30/30
f 70/31/31 66/32/32 65/33/33 69/34/34
f 52/27/27 62/26/26 100/35/35
f 61/21/21 86/36/36 20/37/37
f 62/26/26 66/32/32 97/38/38
f 60/39/39 63/40/40 88/41/41
f 92/42/42 21/43/43 67/44/44
f 94/45/45 20/37/37 102/46/46
f 77/47/47 76/48/48 23/49/49 78/50/50
f 70/31/31 73/51/51 93/52/52
f 57/53/53 68/54/54 102/46/46
f 78/50/50 74/55/55 91/56/56
f 78/50/50 23/49/49 74/55/55
f 75/57/57 71/58/58 76/48/48
f 73/51/51 77/47/47 78/50/50 91/56/56
f 8/9/9 31/59/59 40/7/7
f 8/9/9 28/8/8 26/11/11
f 37/60/60 44/61/61 38/62/62
f 34/63/63 51/28/28 39/30/30
f 36/13/13 85/23/23 41/64/64
f 43/20/20 15/65/65 44/61/61
f 17/66/66 21/43/43 60/39/39
f 80/67/67 86/36/36 61/21/21
f 72/68/68 94/45/45 102/46/46
f 89/69/69 22/70/70 79/71/71
f 21/43/43 91/56/56 89/69/69
f 21/43/43 89/69/69 60/39/39
f 87/25/25 65/33/33 66/32/32
f 106/22/22 20/37/37 65/33/33
f 106/22/22 61/21/21 20/37/37
f 56/72/72 51/28/28 88/41/41
f 46/29/29 51/28/28 56/72/72
f 55/73/73 54/74/74 51/28/28
f 55/73/73 44/61/61 50/75/75
f 38/62/62 55/73/73 51/28/28
f 36/13/13 45/12/12 85/23/23
f 40/7/7 83/76/76 61/21/21
f 110/77/77 108/78/78 30/15/15
f 4/79/79 26/11/11 5/2/2
f 3/80/80 8/9/9 4/79/79
f 47/81/81 80/67/67 61/21/21
f 80/67/67 81/82/82 86/36/36
f 68/54/54 90/83/83 72/68/68
f 91/56/56 74/55/55 22/70/70
f 93/52/52 73/51/51 91/56/56 92/42/42
f 90/83/83 71/58/58 72/68/68
f 89/69/69 91/56/56 22/70/70
f 69/34/34 72/68/68 75/57/57
f 94/45/45 72/68/68 69/34/34
f 96/84/84 93/52/52 92/42/42
f 95/85/85 63/40/40 60/39/39 79/71/71
f 66/32/32 93/52/52 96/84/84
f 65/33/33 94/45/45 69/34/34
f 102/46/46 68/54/54 72/68/68
f 103/86/86 104/87/87 100/35/35 99/88/88
f 96/84/84 92/42/42 19/89/89
f 64/90/90 34/63/63 109/91/91
f 99/88/88 19/89/89 67/44/44
f 87/25/25 66/32/32 62/26/26
f 100/35/35 97/38/38 19/89/89
f 81/82/82 18/92/92 86/36/36
f 54/74/74 88/41/41 51/28/28
f 54/74/74 60/39/39 88/41/41
f 53/93/93 60/39/39 54/74/74
f 17/66/66 60/39/39 53/93/93
f 99/88/88 67/44/44 98/94/94
f 59/95/95 65/33/33 87/25/25 101/24/24
f 85/23/23 106/22/22 59/95/95
f 106/22/22 65/33/33 59/95/95
f 58/96/96 57/53/53 86/36/36
f 49/97/97 98/94/94 53/93/93 50/75/75
f 86/36/36 102/46/46 20/37/37
f 86/36/36 57/53/53 102/46/46
f 16/98/98 103/86/86 98/94/94 49/97/97
f 41/64/64 52/27/27 48/99/99 105/100/100
f 48/99/99 104/87/87 103/86/86
f 1/101/101 4/79/79 5/2/2
f 15/65/65 49/97/97 44/61/61
f 14/102/102 16/98/98 49/97/97
f 30/15/15 107/18/18 37/60/60 33/16/16
f 13/103/103 47/81/81 61/21/21
f 44/61/61 55/73/73 38/62/62
f 84/19/19 105/100/100 14/102/102
f 83/76/76 13/103/103 61/21/21
f 38/62/62 51/28/28 34/63/63
f 14/102/102 15/65/65 43/20/20
f 43/20/20 44/61/61 37/60/60
f 41/64/64 105/100/100 42/104/104
f 36/13/13 41/64/64 42/104/104
f 42/104/104 105/100/100 84/19/19
f 35/17/17 85/23/23 45/12/12
f 12/105/105 37/60/60 38/62/62
f 40/7/7 106/22/22 35/17/17
f 32/106/106 82/107/107 108/78/78 110/77/77
f 36/13/13 42/104/104 82/107/107
f 11/10/10 35/17/17 45/12/12
f 34/63/63 39/30/30 109/91/91
f 10/108/108 9/109/109 111/14/14 33/16/16
f 31/59/59 83/76/76 40/7/7
f 10/108/108 12/105/105 34/63/63
f 64/90/90 10/108/108 34/63/63
f 112/110/110 24/4/4 9/109/109 25/111/111
f 9/109/109 29/6/6 111/14/14
f 32/106/106 110/77/77 27/5/5
f 112/110/110 25/111/111 7/112/112
f 11/10/10 32/106/106 27/5/5
f 7/112/112 25/111/111 10/108/108
f 25/111/111 9/109/109 10/108/108
f 6/3/3 29/6/6 9/109/109
f 8/9/9 26/11/11 4/79/79
f 2/113/113 1/101/101 113/1/1
f 64/90/90 7/112/112 10/108/108
f 10/108/108 33/16/16 12/105/105
f 44/61/61 49/97/97 50/75/75
f 50/75/75 53/93/93 54/74/74
f 98/94/94 67/44/44 17/66/66
f 30/15/15 111/14/14 29/6/6 110/77/77
f 77/47/47 75/57/57 76/48/48
f 75/57/57 72/68/68 71/58/58
f 70/31/31 77/47/47 73/51/51
f 70/31/31 75/57/57 77/47/47
f 70/31/31 69/34/34 75/57/57
f 21/43/43 92/42/42 91/56/56
f 66/32/32 70/31/31 93/52/52
f 94/45/45 65/33/33 20/37/37
f 60/39/39 89/69/69 79/71/71
f 19/89/89 92/42/42 67/44/44
f 19/89/89 97/38/38 96/84/84
f 96/84/84 97/38/38 66/32/32
f 18/92/92 58/96/96 86/36/36
f 17/66/66 67/44/44 21/43/43
f 99/88/88 100/35/35 19/89/89
f 100/35/35 62/26/26 97/38/38
f 98/94/94 17/66/66 53/93/93
f 103/86/86 99/88/88 98/94/94
f 104/87/87 52/27/27 100/35/35
f 85/23/23 59/95/95 101/24/24
f 55/73/73 50/75/75 54/74/74
f 16/98/98 48/99/99 103/86/86
f 48/99/99 52/27/27 104/87/87
f 14/102/102 49/97/97 15/65/65
f 105/100/100 16/98/98 14/102/102
f 105/100/100 48/99/99 16/98/98
f 43/20/20 84/19/19 14/102/102
f 42/104/104 84/19/19 108/78/78
f 33/16/16 37/60/60 12/105/105
f 107/18/18 43/20/20 37/60/60
f 30/15/15 108/78/78 107/18/18
f 107/18/18 108/78/78 84/19/19
f 82/107/107 42/104/104 108/78/78
f 34/63/63 12/105/105 38/62/62
f 11/10/10 82/107/107 32/106/106
f 27/5/5 110/77/77 29/6/6
f 26/11/11 11/10/10 27/5/5
f 6/3/3 5/2/2 27/5/5
f 5/2/2 26/11/11 27/5/5
f 9/109/109 24/4/4 6/3/3
f 113/1/1 1/101/101 5/2/2
f 101/24/24 52/27/27 41/64/64
f 41/64/64 85/23/23 101/24/24
f 82/107/107 11/10/10 36/13/13
