# Blender v3.0.0 OBJ File: 'FBX_to_OBJ.blend'
# www.blender.org
mtllib SM_rock2.mtl
o rpgpp_lt_rock_03_rpgpp_lt_rock_03.001
v -0.022602 0.562284 -0.584819
v -0.080070 0.099129 -1.136598
v 0.346631 0.693398 0.449859
v -0.420591 0.739374 0.440088
v 1.070632 -0.269736 -0.055873
v 0.776451 -0.364438 0.451757
v 0.915926 -0.655491 0.032314
v 0.817964 0.138420 0.130305
v 0.790693 -0.175199 0.503037
v -0.373088 0.135066 1.251132
v 0.218670 0.560936 0.972551
v -0.906692 0.291453 1.055716
v -1.060962 -0.362578 -0.185638
v -0.640748 -0.098445 -0.808625
v 1.453280 -0.472434 -0.636208
v 1.107808 -0.805018 -0.304156
v 1.361395 -0.721653 -0.836970
v 1.223086 -0.476455 -1.236082
v 1.016808 0.006471 -1.265508
v -0.442187 -0.462102 0.972889
v 0.237489 -0.735925 0.487522
v 0.273249 -0.357549 0.750190
v -0.428215 -0.748690 0.655795
v 0.455540 -0.818109 0.126430
v 0.740337 -0.825734 -0.526298
v -1.283042 0.152857 -0.406095
v -1.175173 0.501393 0.432194
v -1.545326 0.183719 0.153901
v -1.277706 0.033016 0.887646
v 0.653698 0.416318 0.986666
v 0.728031 0.171166 0.977305
v 0.760378 0.617698 0.072401
v 0.276146 0.232694 1.209063
v 1.477096 -0.144752 -0.563865
v 1.048597 0.297993 -0.657758
v -0.616901 0.661767 -0.343624
v 0.556307 0.779763 -0.159819
v -1.381577 0.493429 0.011049
v 0.168357 0.407873 -0.926722
v 0.522943 -0.140811 -1.423753
v 0.888055 -0.777529 -0.912381
v -0.030074 -0.668561 -0.587277
v 0.143098 -0.370873 -1.046306
v 0.199313 -0.022904 1.084133
v -1.066889 -0.274368 1.045759
v -1.269893 -0.321301 0.415285
v -0.200339 0.530066 0.972664
v -1.151363 0.674685 0.122707
v -0.374651 -0.124170 -0.999088
v 0.611686 0.431355 -0.873708
v -1.517084 -0.065397 0.237047
v 0.816323 -0.439105 -1.473894
v 0.296483 -0.359392 -1.372715
v 0.410364 0.798188 0.210053
v -0.094436 -0.174187 -1.225870
v -0.959113 -0.023673 1.176110
v 0.934100 -0.236210 -1.487054
vt 0.786174 0.841883
vt 0.786174 0.841883
vt 0.786174 0.841883
vt 0.786174 0.841883
vt 0.786174 0.841883
vt 0.786174 0.841883
vt 0.786174 0.841883
vt 0.786174 0.841883
vt 0.786174 0.841883
vt 0.786174 0.841883
vt 0.786174 0.841883
vt 0.786174 0.841883
vt 0.786174 0.841883
vt 0.786174 0.841883
vt 0.786174 0.841883
vt 0.786174 0.841883
vt 0.786174 0.841883
vt 0.786174 0.841883
vt 0.786174 0.841883
vt 0.786174 0.841883
vt 0.786174 0.841883
vt 0.786174 0.841883
vt 0.786174 0.841883
vt 0.786174 0.841883
vt 0.786174 0.841883
vt 0.786174 0.841883
vt 0.786174 0.841883
vt 0.786174 0.841883
vt 0.786174 0.841883
vt 0.786174 0.841883
vt 0.786174 0.841883
vt 0.786174 0.841883
vt 0.786174 0.841883
vt 0.786174 0.841883
vt 0.786174 0.841883
vt 0.786174 0.841883
vt 0.786174 0.841883
vt 0.786174 0.841883
vt 0.786174 0.841883
vt 0.786174 0.841883
vt 0.786174 0.841883
vt 0.786174 0.841883
vt 0.786174 0.841883
vt 0.786174 0.841883
vt 0.786174 0.841883
vt 0.786174 0.841883
vt 0.786174 0.841883
vt 0.786174 0.841883
vt 0.786174 0.841883
vt 0.786174 0.841883
vt 0.786174 0.841883
vt 0.786174 0.841883
vt 0.786174 0.841883
vt 0.786174 0.841883
vt 0.786174 0.841883
vt 0.786174 0.841883
vt 0.786174 0.841883
vn 0.8256 -0.0151 0.5641
vn 0.6866 -0.3175 0.6540
vn 0.5806 -0.6389 0.5046
vn 0.9840 -0.1490 0.0974
vn 0.5272 -0.7836 0.3287
vn 0.6918 -0.6830 -0.2345
vn 0.3074 0.8847 0.3506
vn 0.5398 0.5719 0.6177
vn 0.7510 -0.1125 0.6507
vn 0.7449 0.6458 0.1677
vn 0.5116 0.5929 -0.6219
vn 0.9559 0.2754 0.1020
vn 0.6921 -0.3201 -0.6469
vn 0.8484 -0.1148 0.5168
vn 0.9034 0.1497 0.4019
vn 0.2161 0.1091 0.9703
vn 0.0961 0.8204 0.5636
vn 0.0053 0.0609 0.9981
vn -0.6994 0.0879 -0.7093
vn -0.9911 0.1315 -0.0204
vn -0.7464 0.6335 -0.2037
vn -0.4051 0.5163 -0.7546
vn -0.1547 0.7782 -0.6086
vn -0.1229 0.3752 -0.9187
vn -0.0197 -0.9361 -0.3512
vn -0.3087 -0.8757 -0.3713
vn -0.3866 -0.8014 -0.4564
vn -0.6444 -0.1145 -0.7561
vn -0.5040 -0.5543 0.6624
vn -0.8414 0.0887 0.5330
vn -0.9123 -0.4094 -0.0117
vn -0.6639 -0.7407 0.1028
vn 0.1354 -0.9558 0.2610
vn -0.0114 -0.9989 -0.0461
vn -0.1348 -0.9300 0.3419
vn 0.2854 -0.7975 0.5316
vn -0.5559 -0.1108 -0.8239
vn -0.1779 0.8139 -0.5531
vn -0.5664 -0.7360 -0.3708
vn -0.0957 0.8028 0.5886
vn -0.3950 0.6235 0.6748
vn -0.5423 -0.3073 -0.7819
vn 0.2960 -0.5050 0.8107
vn -0.5405 0.7269 0.4236
vn 0.2215 0.8323 -0.5081
vn 0.6309 0.7406 -0.2314
vn 0.0684 -0.6141 0.7862
vn 0.3672 -0.6073 0.7045
vn -0.4014 -0.4633 -0.7901
vn 0.3254 0.2060 -0.9229
vn -0.0194 -0.5367 -0.8436
vn -0.3504 -0.0199 0.9364
vn -0.4425 0.8966 -0.0188
vn -0.2200 0.8310 -0.5109
vn 0.2700 0.9449 -0.1852
vn 0.2388 0.9443 0.2263
vn -0.1255 0.9692 0.2118
usemtl rpgpp_lt_mat_a.020
s 1
f 5/1/1 6/2/2 7/3/3
f 15/4/4 16/5/5 17/6/6
f 3/7/7 30/8/8 31/9/9 32/10/10
f 19/11/11 34/12/12 15/4/4 18/13/13
f 31/9/9 9/14/14 8/15/15 32/10/10
f 33/16/16 11/17/17 10/18/18
f 26/19/19 28/20/20 38/21/21
f 2/22/22 39/23/23 40/24/24
f 41/25/25 42/26/26 43/27/27
f 49/28/28 43/27/27 42/26/26
f 45/29/29 29/30/30 51/31/31 46/32/32
f 7/3/3 24/33/33 25/34/34 16/5/5
f 17/6/6 18/13/13 15/4/4
f 23/35/35 24/33/33 21/36/36
f 23/35/35 42/26/26 25/34/34 24/33/33
f 49/28/28 14/37/37 1/38/38 2/22/22
f 51/31/31 28/20/20 26/19/19 13/39/39
f 47/40/40 12/41/41 10/18/18 11/17/17
f 55/42/42 43/27/27 49/28/28
f 44/43/43 31/9/9 30/8/8 33/16/16
f 27/44/44 38/21/21 28/20/20
f 50/45/45 35/46/46 19/11/11
f 34/12/12 19/11/11 35/46/46
f 9/14/14 6/2/2 5/1/1 8/15/15
f 20/47/47 22/48/48 44/43/43 10/18/18
f 51/31/31 13/39/39 46/32/32
f 24/33/33 7/3/3 6/2/2
f 15/4/4 34/12/12 5/1/1 7/3/3
f 2/22/22 55/42/42 49/28/28
f 23/35/35 20/47/47 45/29/29
f 53/49/49 55/42/42 2/22/22 40/24/24
f 19/11/11 18/13/13 57/50/50
f 51/31/31 29/30/30 28/20/20
f 44/43/43 33/16/16 10/18/18
f 23/35/35 21/36/36 22/48/48 20/47/47
f 41/25/25 43/27/27 53/49/49 52/51/51
f 57/50/50 18/13/13 52/51/51
f 56/52/52 29/30/30 45/29/29
f 48/53/53 36/54/54 26/19/19 38/21/21
f 40/24/24 19/11/11 57/50/50
f 15/4/4 7/3/3 16/5/5
f 39/23/23 1/38/38 37/55/55 50/45/45
f 55/42/42 53/49/49 43/27/27
f 36/54/54 1/38/38 14/37/37 26/19/19
f 40/24/24 39/23/23 50/45/45 19/11/11
f 12/41/41 29/30/30 56/52/52
f 1/38/38 39/23/23 2/22/22
f 42/26/26 41/25/25 25/34/34
f 40/24/24 57/50/50 52/51/51 53/49/49
f 3/7/7 54/56/56 4/57/57
f 27/44/44 48/53/53 38/21/21
f 20/47/47 10/18/18 56/52/52 45/29/29
f 29/30/30 12/41/41 27/44/44 28/20/20
f 13/39/39 23/35/35 46/32/32
f 6/2/2 22/48/48 21/36/36 24/33/33
f 9/14/14 31/9/9 44/43/43 22/48/48
f 22/48/48 6/2/2 9/14/14
f 11/17/17 3/7/7 4/57/57 47/40/40
f 30/8/8 11/17/17 33/16/16
f 11/17/17 30/8/8 3/7/7
f 12/41/41 56/52/52 10/18/18
f 4/57/57 12/41/41 47/40/40
f 48/53/53 27/44/44 4/57/57
f 27/44/44 12/41/41 4/57/57
f 36/54/54 37/55/55 1/38/38
f 4/57/57 54/56/56 37/55/55 36/54/54
f 4/57/57 36/54/54 48/53/53
f 41/25/25 52/51/51 18/13/13 17/6/6
f 25/34/34 41/25/25 17/6/6 16/5/5
f 45/29/29 46/32/32 23/35/35
f 49/28/28 42/26/26 13/39/39 14/37/37
f 13/39/39 26/19/19 14/37/37
f 23/35/35 13/39/39 42/26/26
f 37/55/55 32/10/10 35/46/46 50/45/45
f 34/12/12 35/46/46 32/10/10
f 34/12/12 32/10/10 5/1/1
f 54/56/56 32/10/10 37/55/55
f 5/1/1 32/10/10 8/15/15
f 32/10/10 54/56/56 3/7/7
