# Blender v3.0.0 OBJ File: 'FBX_to_OBJ.blend'
# www.blender.org
mtllib SM_sky.mtl
o rpgpp_lt_sky_01_rpgpp_lt_sky_01.001
v -10.102473 31.546312 -17.702854
v -14.997748 32.934994 -11.129892
v -19.256487 33.166611 4.366609
v -18.452192 33.203243 -4.056484
v -7.840975 35.013081 -2.657342
v -8.173391 34.511490 6.719850
v -16.816828 32.148476 12.636725
v 9.795768 34.294250 -3.677897
v 10.594081 34.083134 4.032403
v 1.505942 35.094810 0.390210
v 16.380760 32.716618 -10.932180
v 19.930422 32.729153 -2.526205
v 20.066763 32.491978 6.373436
v 12.043333 31.570824 18.990910
v 5.701253 32.321457 20.178675
v 2.959568 33.988026 10.295768
v 16.011049 32.296299 13.778846
v 20.306349 -0.000008 45.275902
v 6.739231 -0.000008 49.505352
v 6.069366 14.930925 44.305733
v 20.779524 15.849156 38.497196
v 34.756191 16.360008 26.312885
v 39.782230 -0.000005 29.235582
v 43.411346 15.805204 9.899136
v 48.611965 -0.000002 10.664933
v 43.215275 15.837208 -8.557680
v 48.293591 0.000001 -9.602599
v 35.913261 16.013376 -25.833147
v 40.447639 0.000005 -28.647797
v 22.119797 15.931726 -37.883446
v 25.171726 0.000007 -42.162491
v 5.067259 15.998651 -43.816422
v 6.013520 0.000008 -48.777092
v -13.183622 15.575519 -43.064266
v -13.610601 0.000008 -47.712845
v -28.979261 14.745728 -35.678085
v -31.875786 0.000007 -40.266224
v -39.724579 15.041079 -22.846611
v -44.014713 0.000004 -25.113543
v -44.212589 15.277040 -6.673181
v -49.103077 0.000001 -7.356241
v -43.309418 15.338314 9.590067
v -48.254684 -0.000002 10.456865
v -37.005966 15.163071 24.469402
v -41.063705 -0.000004 27.237852
v -25.334169 15.113402 36.599464
v -28.241812 -0.000007 40.764294
v -10.062293 15.063635 43.428055
v -11.319632 -0.000008 48.407200
v -21.528124 22.575136 31.498116
v -8.418321 22.437984 36.988461
v 5.973735 22.508352 37.933205
v 19.255617 22.113197 33.009586
v -5.846690 28.224987 29.265211
v 5.386128 28.887663 28.938303
v 15.661309 28.268278 25.757570
v 23.055313 28.641068 17.872488
v 30.104799 22.276411 22.978582
v 36.616642 22.821241 8.854216
v 28.803730 28.428516 7.794177
v 29.022310 28.701725 -4.910880
v 36.441978 22.909159 -7.159029
v 30.363388 23.425871 -21.937166
v 23.728867 29.334404 -17.139349
v 13.908468 29.523367 -25.336021
v 18.415277 23.507761 -32.219318
v 8.866850 32.954586 -16.964140
v -0.125269 32.351906 -19.254814
v 1.803305 29.188951 -29.203959
v -1.929429 34.354351 -10.325262
v -2.742481 31.990225 20.274887
v -10.362104 32.311932 16.969620
v -16.347403 28.400499 24.806890
v -24.515219 28.424879 17.432539
v -31.331480 22.536022 21.375338
v -37.041954 22.798239 8.294374
v -29.312969 28.222319 6.918123
v -37.933811 22.680443 -5.769733
v -30.112000 28.393051 -4.519878
v -33.874760 22.546144 -19.160294
v -26.161470 28.932060 -14.783961
v -25.205584 22.484861 -30.030071
v -19.860981 28.209347 -23.254429
v -12.011856 22.574116 -36.143467
v -9.853490 28.711889 -27.109489
v 3.400757 23.507772 -37.454338
vt 0.469593 0.772103
vt 0.469593 0.772103
vt 0.469982 0.854838
vt 0.469982 0.854838
vt 0.469593 0.772103
vt 0.469982 0.854838
vt 0.469982 0.854838
vt 0.469982 0.945194
vt 0.469593 0.772103
vt 0.469593 0.772103
vt 0.469593 0.772103
vt 0.469593 0.772103
vt 0.469593 0.772103
vt 0.469982 0.854838
vt 0.469593 0.772103
vt 0.469982 0.160035
vt 0.469982 0.160035
vt 0.469982 0.384366
vt 0.469982 0.384366
vt 0.469982 0.384366
vt 0.469982 0.160035
vt 0.469982 0.384366
vt 0.469982 0.160035
vt 0.469982 0.384366
vt 0.469982 0.160035
vt 0.469982 0.384366
vt 0.469982 0.160035
vt 0.469982 0.384366
vt 0.469982 0.160035
vt 0.469982 0.384366
vt 0.469982 0.160035
vt 0.469982 0.384366
vt 0.469982 0.160035
vt 0.469982 0.384366
vt 0.469982 0.160035
vt 0.469982 0.384366
vt 0.469982 0.160035
vt 0.469982 0.384366
vt 0.469982 0.160035
vt 0.469982 0.384366
vt 0.469982 0.160035
vt 0.469982 0.384366
vt 0.469982 0.160035
vt 0.469982 0.384366
vt 0.469982 0.160035
vt 0.469982 0.384366
vt 0.469982 0.160035
vt 0.469982 0.505879
vt 0.469982 0.505879
vt 0.469982 0.505879
vt 0.469982 0.505879
vt 0.469982 0.661664
vt 0.469982 0.661664
vt 0.469982 0.661664
vt 0.469982 0.661664
vt 0.469982 0.505879
vt 0.469982 0.505879
vt 0.469982 0.661664
vt 0.469982 0.661664
vt 0.469982 0.505879
vt 0.469982 0.505879
vt 0.469982 0.661664
vt 0.469982 0.661664
vt 0.469982 0.505879
vt 0.469593 0.772103
vt 0.469593 0.772103
vt 0.469982 0.661664
vt 0.469982 0.854838
vt 0.469593 0.772103
vt 0.469593 0.772103
vt 0.469593 0.772103
vt 0.469593 0.772103
vt 0.469982 0.661664
vt 0.469982 0.661664
vt 0.469982 0.505879
vt 0.469982 0.505879
vt 0.469982 0.661664
vt 0.469982 0.505879
vt 0.469982 0.661664
vt 0.469982 0.505879
vt 0.469982 0.661664
vt 0.469982 0.505879
vt 0.469982 0.661664
vt 0.469982 0.505879
vt 0.469982 0.661664
vt 0.469982 0.505879
vn 0.2863 -0.9544 -0.0840
vn 0.2671 -0.9617 0.0613
vn 0.0819 -0.9956 0.0445
vn 0.0787 -0.9901 -0.1162
vn 0.2459 -0.9453 -0.2144
vn -0.1106 -0.9928 0.0469
vn -0.1175 -0.9908 -0.0669
vn -0.0386 -0.9991 -0.0156
vn -0.2196 -0.9647 0.1454
vn -0.2866 -0.9574 0.0343
vn -0.2868 -0.9529 -0.0983
vn -0.1797 -0.9450 -0.2733
vn -0.0586 -0.9600 -0.2736
vn -0.0376 -0.9887 -0.1451
vn -0.2218 -0.9537 -0.2029
vn -0.4427 -0.3346 -0.8319
vn -0.1276 -0.3402 -0.9317
vn -0.1181 -0.4939 -0.8615
vn -0.4376 -0.4949 -0.7507
vn -0.6789 -0.5034 -0.5344
vn -0.7486 -0.3186 -0.5815
vn -0.8402 -0.5074 -0.1911
vn -0.9242 -0.3217 -0.2058
vn -0.8464 -0.5042 0.1713
vn -0.9298 -0.3143 0.1917
vn -0.7045 -0.4985 0.5051
vn -0.7728 -0.3160 0.5505
vn -0.4384 -0.4876 0.7550
vn -0.4814 -0.3092 0.8202
vn -0.1190 -0.4887 0.8643
vn -0.1359 -0.3001 0.9442
vn 0.2169 -0.4930 0.8426
vn 0.2169 -0.3031 0.9279
vn 0.5317 -0.4930 0.6887
vn 0.5703 -0.3191 0.7569
vn 0.7698 -0.4891 0.4101
vn 0.8406 -0.3152 0.4404
vn 0.8693 -0.4838 0.1010
vn 0.9452 -0.3081 0.1083
vn 0.8524 -0.4828 -0.2007
vn 0.9269 -0.3089 -0.2130
vn 0.7309 -0.4816 -0.4835
vn 0.7930 -0.3105 -0.5242
vn 0.5020 -0.4863 -0.7152
vn 0.5470 -0.3176 -0.7745
vn 0.2040 -0.4910 -0.8470
vn 0.2245 -0.3237 -0.9191
vn 0.3811 -0.7336 -0.5627
vn 0.1545 -0.7355 -0.6596
vn -0.1057 -0.7321 -0.6729
vn -0.3607 -0.7272 -0.5840
vn 0.1072 -0.8705 -0.4803
vn -0.0793 -0.8730 -0.4812
vn -0.2832 -0.8541 -0.4363
vn -0.4067 -0.8572 -0.3158
vn -0.5332 -0.7381 -0.4133
vn -0.6416 -0.7513 -0.1544
vn -0.4966 -0.8573 -0.1357
vn -0.5006 -0.8624 0.0759
vn -0.6543 -0.7462 0.1230
vn -0.5473 -0.7434 0.3844
vn -0.4006 -0.8751 0.2714
vn -0.2215 -0.8839 0.4119
vn -0.3356 -0.7382 0.5851
vn -0.1020 -0.9693 0.2236
vn 0.0410 -0.9592 0.2797
vn -0.0050 -0.8879 0.4600
vn 0.0243 -0.9869 0.1594
vn 0.1933 -0.9608 0.1988
vn 0.1368 -0.9506 0.2787
vn 0.0587 -0.9559 -0.2877
vn 0.1307 -0.9562 -0.2620
vn 0.2580 -0.8724 -0.4151
vn 0.4047 -0.8655 -0.2951
vn 0.5632 -0.7306 -0.3861
vn 0.6607 -0.7332 -0.1609
vn 0.4881 -0.8640 -0.1239
vn 0.6747 -0.7336 0.0806
vn 0.4922 -0.8682 0.0633
vn 0.5928 -0.7393 0.3194
vn 0.4029 -0.8828 0.2416
vn 0.4114 -0.7481 0.5206
vn 0.2800 -0.8811 0.3812
vn 0.1936 -0.7510 0.6313
vn 0.1553 -0.8911 0.4263
vn -0.0623 -0.7480 0.6607
usemtl rpgpp_lt_mat_a.024
s 1
f 3/1/1 4/2/2 5/3/3 6/4/4
f 3/1/1 6/4/4 7/5/5
f 8/6/6 9/7/7 10/8/8
f 8/6/6 11/9/9 12/10/10
f 8/6/6 12/10/10 13/11/11 9/7/7
f 14/12/12 15/13/13 16/14/14 17/15/15
f 18/16/16 19/17/17 20/18/18 21/19/19
f 18/16/16 21/19/19 22/20/20 23/21/21
f 23/21/21 22/20/20 24/22/22 25/23/23
f 25/23/23 24/22/22 26/24/24 27/25/25
f 27/25/25 26/24/24 28/26/26 29/27/27
f 29/27/27 28/26/26 30/28/28 31/29/29
f 31/29/29 30/28/28 32/30/30 33/31/31
f 33/31/31 32/30/30 34/32/32 35/33/33
f 35/33/33 34/32/32 36/34/34 37/35/35
f 37/35/35 36/34/34 38/36/36 39/37/37
f 39/37/37 38/36/36 40/38/38 41/39/39
f 41/39/39 40/38/38 42/40/40 43/41/41
f 43/41/41 42/40/40 44/42/42 45/43/43
f 45/43/43 44/42/42 46/44/44 47/45/45
f 47/45/45 46/44/44 48/46/46 49/47/47
f 49/47/47 48/46/46 20/18/18 19/17/17
f 48/46/46 46/44/44 50/48/48 51/49/49
f 48/46/46 51/49/49 52/50/50 20/18/18
f 52/50/50 53/51/51 21/19/19 20/18/18
f 52/50/50 51/49/49 54/52/52 55/53/53
f 52/50/50 55/53/53 56/54/54 53/51/51
f 56/54/54 57/55/55 58/56/56 53/51/51
f 56/54/54 55/53/53 15/13/13 14/12/12
f 56/54/54 14/12/12 17/15/15 57/55/55
f 58/56/56 59/57/57 24/22/22 22/20/20
f 58/56/56 22/20/20 21/19/19 53/51/51
f 58/56/56 57/55/55 60/58/58 59/57/57
f 60/58/58 61/59/59 62/60/60 59/57/57
f 60/58/58 57/55/55 17/15/15 13/11/11
f 60/58/58 13/11/11 12/10/10 61/59/59
f 62/60/60 63/61/61 28/26/26 26/24/24
f 62/60/60 26/24/24 24/22/22 59/57/57
f 62/60/60 61/59/59 64/62/62 63/61/61
f 64/62/62 65/63/63 66/64/64 63/61/61
f 64/62/62 61/59/59 12/10/10 11/9/9
f 64/62/62 11/9/9 67/65/65 65/63/63
f 67/65/65 68/66/66 69/67/67 65/63/63
f 67/65/65 11/9/9 8/6/6 70/68/68
f 67/65/65 70/68/68 68/66/66
f 70/68/68 2/69/69 1/70/70 68/66/66
f 70/68/68 10/8/8 5/3/3
f 70/68/68 5/3/3 4/2/2 2/69/69
f 10/8/8 70/68/68 8/6/6
f 10/8/8 16/14/14 6/4/4
f 10/8/8 6/4/4 5/3/3
f 6/4/4 16/14/14 71/71/71 72/72/72
f 6/4/4 72/72/72 7/5/5
f 72/72/72 71/71/71 54/52/52 73/73/73
f 72/72/72 73/73/73 74/74/74 7/5/5
f 74/74/74 73/73/73 50/48/48 75/75/75
f 74/74/74 75/75/75 76/76/76 77/77/77
f 74/74/74 77/77/77 3/1/1 7/5/5
f 77/77/77 76/76/76 78/78/78 79/79/79
f 77/77/77 79/79/79 4/2/2 3/1/1
f 79/79/79 78/78/78 80/80/80 81/81/81
f 79/79/79 81/81/81 2/69/69 4/2/2
f 81/81/81 80/80/80 82/82/82 83/83/83
f 81/81/81 83/83/83 1/70/70 2/69/69
f 83/83/83 82/82/82 84/84/84 85/85/85
f 83/83/83 85/85/85 1/70/70
f 85/85/85 84/84/84 86/86/86 69/67/67
f 85/85/85 69/67/67 68/66/66 1/70/70
f 86/86/86 84/84/84 34/32/32 32/30/30
f 86/86/86 32/30/30 30/28/28 66/64/64
f 86/86/86 66/64/64 65/63/63 69/67/67
f 84/84/84 82/82/82 36/34/34 34/32/32
f 82/82/82 80/80/80 38/36/36 36/34/34
f 80/80/80 78/78/78 40/38/38 38/36/36
f 78/78/78 76/76/76 42/40/40 40/38/38
f 76/76/76 75/75/75 44/42/42 42/40/40
f 75/75/75 50/48/48 46/44/44 44/42/42
f 73/73/73 54/52/52 51/49/49 50/48/48
f 71/71/71 15/13/13 55/53/53 54/52/52
f 71/71/71 16/14/14 15/13/13
f 16/14/14 10/8/8 9/7/7
f 66/64/64 30/28/28 28/26/26 63/61/61
f 17/15/15 16/14/14 9/7/7 13/11/11
