# Blender v3.0.0 OBJ File: 'FBX_to_OBJ.blend'
# www.blender.org
mtllib SM_hill_small2.mtl
o rpgpp_lt_hill_small_02_rpgpp_lt_hill_small_02.001
v -55.142059 -0.000005 29.760714
v -56.810257 -0.000003 18.554638
v -56.859833 -0.000001 8.773049
v -56.513012 -0.004064 -19.163425
v -56.149670 -0.003581 -25.130989
v -54.685860 -0.002448 -31.281689
v -50.430248 -0.004690 -37.328239
v -50.189480 -0.000006 36.677574
v -50.630619 2.458761 21.693628
v -50.881413 2.865782 9.077263
v -50.218079 2.636693 -22.281759
v -43.985981 -0.003350 -43.984299
v -44.097137 -0.000007 43.961731
v -39.291195 6.122096 36.964615
v -45.085629 7.326873 20.237379
v -44.638405 9.376576 8.690398
v -44.879871 7.480187 -16.940273
v -49.434975 2.111802 -31.121714
v -37.172325 0.000008 -50.140560
v -37.688492 -0.000008 50.329918
v -39.654171 8.951651 27.863968
v -39.628574 12.306934 16.446884
v -39.748863 14.482918 10.354052
v -40.003227 14.736013 -0.061223
v -39.900795 10.444832 -26.222282
v -37.839340 7.993891 -38.243824
v -28.756468 0.000009 -55.887356
v -31.693924 -0.000009 54.296852
v -33.825363 15.519391 16.837368
v -33.816727 19.179413 10.885077
v -34.609497 19.393053 4.877359
v -35.973934 18.443390 -2.815801
v -36.671917 17.743366 -11.645523
v -36.490326 16.601519 -17.681400
v -37.917950 11.063953 -29.491203
v -32.443882 11.115341 -37.199295
v -31.772453 2.328264 -49.467426
v -25.352457 -0.000009 55.810566
v -30.623560 1.434827 50.002888
v -30.786278 8.238958 38.397301
v -33.324615 9.381611 30.827913
v -31.799824 12.169567 24.432421
v -26.897655 17.412031 18.127651
v -26.910467 21.258907 11.188772
v -28.757072 22.398914 -0.383467
v -31.389416 20.384436 -11.658776
v -30.994020 18.448030 -19.754036
v -27.093927 14.718505 -31.191168
v -25.071247 12.696292 -38.269199
v -19.125017 -0.000009 56.514080
v -22.008915 11.922068 27.889061
v -19.120052 23.200336 1.608257
v -22.853369 22.191666 -5.098564
v -25.555117 19.845636 -15.848449
v -21.087778 16.599531 -28.882107
v -19.105143 14.295197 -38.059090
v -22.852634 3.046024 -50.363960
v -23.931097 0.000009 -56.553551
v -11.354300 14.787863 27.766895
v -14.398075 17.457104 19.962267
v -17.170557 19.543884 14.545247
v -10.093629 20.470675 7.580677
v -16.212313 18.616631 -17.763214
v -12.835419 17.830898 -29.660757
v -12.692214 14.437320 -38.679581
v -8.810657 2.342814 50.427887
v -13.409517 8.928281 40.403858
v -3.751130 16.608496 12.343594
v -2.893182 19.904215 -0.043916
v -7.790302 20.818857 -7.801285
v -4.482086 18.515209 -20.199816
v -8.424523 3.112724 -50.263866
v -3.589596 15.104966 26.557875
v 2.835435 15.252298 19.816380
v 2.891111 18.246038 8.419160
v 3.325113 16.662361 -8.106661
v 3.425910 16.827597 -14.766643
v 3.581840 16.597620 -21.611511
v 2.024626 15.889880 -28.571257
v 0.577515 14.618382 -34.382092
v -1.719404 12.431060 -39.567280
v -1.941455 7.701670 -44.895950
v 18.858528 -0.000009 56.532845
v 5.217465 6.861788 42.795002
v 7.796618 10.663976 31.882141
v 6.335152 13.813753 25.534294
v 8.998196 18.770233 16.135708
v 3.328316 18.379246 -1.465420
v 10.020237 17.044565 -15.196422
v 9.782600 12.214897 -28.199804
v 7.980938 8.874567 -40.523941
v 1.050396 0.000009 -56.538631
v 15.040390 20.979364 15.385818
v 15.664759 25.057667 6.704755
v 19.628569 26.372450 -0.992423
v 11.283231 20.126572 -8.043032
v 17.980801 17.731770 -19.714853
v 16.262140 13.126054 -27.879921
v 14.465631 9.442064 -34.496643
v 13.841817 6.414464 -41.380913
v 4.510176 2.345780 -50.359863
v 15.728674 5.632337 44.075592
v 14.955322 9.976390 33.318333
v 19.879646 16.238644 25.702955
v 22.068512 24.032576 14.179385
v 21.556467 26.555241 6.083996
v 22.784546 24.012365 -13.548816
v 18.525309 8.782529 -38.248852
v 22.213810 1.532277 -49.463203
v 18.856649 0.000009 -56.544159
v 24.266684 -0.000009 55.395237
v 17.523485 2.186131 50.184162
v 30.257448 3.332090 45.846966
v 25.672522 11.815918 32.806526
v 26.969107 17.415077 23.015587
v 27.483847 25.012215 10.847585
v 29.178873 26.851748 0.964553
v 29.239132 26.144018 -12.092571
v 28.499039 22.676233 -19.018705
v 26.626114 12.735176 -34.832474
v 24.598757 0.000009 -55.909565
v 31.863403 -0.000008 51.160465
v 31.691580 10.384507 34.173443
v 32.449978 14.436569 26.216452
v 32.887520 19.248131 16.971954
v 34.661091 23.947472 4.057417
v 35.747398 24.879604 -9.036230
v 34.201717 20.337034 -21.229084
v 32.315945 12.821515 -33.975967
v 29.048269 5.358963 -44.850067
v 28.619225 1.450466 -50.801739
v 30.348589 0.000009 -54.727932
v 38.069912 -0.000007 45.673878
v 37.932976 6.375073 37.979721
v 38.020741 10.097417 30.184603
v 39.508812 13.130528 19.254932
v 40.346039 20.098557 -9.855692
v 39.791660 16.602518 -19.051582
v 38.212566 11.193987 -32.190765
v 37.906219 7.006750 -39.051605
v 37.693623 0.000008 -50.348297
v 44.871891 -0.000006 38.275669
v 45.286045 6.173961 29.422352
v 44.922970 10.025726 13.293576
v 40.299599 18.524593 4.738263
v 45.315483 11.397601 0.266619
v 45.087975 9.835505 -15.827693
v 39.336422 13.188951 -26.624146
v 44.048759 6.520875 -31.923531
v 50.173523 0.000006 -37.912838
v 50.400654 -0.000005 31.497860
v 50.225204 2.622461 24.875172
v 50.627544 3.403974 10.472316
v 50.154629 3.200015 -17.144541
v 49.957211 2.174177 -29.822243
v 55.152557 -0.000004 23.430006
v 56.300064 -0.000003 18.009893
v 56.595051 0.001673 12.563398
v 56.531116 0.000004 -25.173101
v 55.215302 0.000005 -29.728476
vt 0.141981 0.858563
vt 0.141981 0.858563
vt 0.141981 0.858563
vt 0.141981 0.858563
vt 0.141981 0.858563
vt 0.141981 0.858563
vt 0.141981 0.858563
vt 0.141981 0.858563
vt 0.141981 0.858563
vt 0.141981 0.858563
vt 0.141981 0.858563
vt 0.141981 0.858563
vt 0.141981 0.858563
vt 0.141981 0.858563
vt 0.141981 0.858563
vt 0.141981 0.858563
vt 0.141981 0.858563
vt 0.141981 0.858563
vt 0.141981 0.858563
vt 0.141981 0.858563
vt 0.141981 0.858563
vt 0.141981 0.858563
vt 0.141981 0.858563
vt 0.141981 0.858563
vt 0.141981 0.858563
vt 0.141981 0.858563
vt 0.141981 0.858563
vt 0.141981 0.858563
vt 0.141981 0.858563
vt 0.141981 0.858563
vt 0.141981 0.858563
vt 0.141981 0.858563
vt 0.141981 0.858563
vt 0.141981 0.858563
vt 0.141981 0.858563
vt 0.141981 0.858563
vt 0.141981 0.858563
vt 0.141981 0.858563
vt 0.141981 0.858563
vt 0.141981 0.858563
vt 0.141981 0.858563
vt 0.141981 0.858563
vt 0.141981 0.858563
vt 0.141981 0.858563
vt 0.141981 0.858563
vt 0.141981 0.858563
vt 0.141981 0.858563
vt 0.141981 0.858563
vt 0.141981 0.858563
vt 0.141981 0.858563
vt 0.141981 0.858563
vt 0.141981 0.858563
vt 0.141981 0.858563
vt 0.141981 0.858563
vt 0.141981 0.858563
vt 0.141981 0.858563
vt 0.141981 0.858563
vt 0.141981 0.858563
vt 0.141981 0.858563
vt 0.141981 0.858563
vt 0.141981 0.858563
vt 0.141981 0.858563
vt 0.141981 0.858563
vt 0.141981 0.858563
vt 0.141981 0.858563
vt 0.141981 0.858563
vt 0.141981 0.858563
vt 0.141981 0.858563
vt 0.141981 0.858563
vt 0.141981 0.858563
vt 0.141981 0.858563
vt 0.141981 0.858563
vt 0.141981 0.858563
vt 0.141981 0.858563
vt 0.141981 0.858563
vt 0.141981 0.858563
vt 0.141981 0.858563
vt 0.141981 0.858563
vt 0.141981 0.858563
vt 0.141981 0.858563
vt 0.141981 0.858563
vt 0.141981 0.858563
vt 0.141981 0.858563
vt 0.141981 0.858563
vt 0.141981 0.858563
vt 0.141981 0.858563
vt 0.141981 0.858563
vt 0.141981 0.858563
vt 0.141981 0.858563
vt 0.141981 0.858563
vt 0.141981 0.858563
vt 0.141981 0.858563
vt 0.141981 0.858563
vt 0.141981 0.858563
vt 0.141981 0.858563
vt 0.141981 0.858563
vt 0.141981 0.858563
vt 0.141981 0.858563
vt 0.141981 0.858563
vt 0.141981 0.858563
vt 0.141981 0.858563
vt 0.141981 0.858563
vt 0.141981 0.858563
vt 0.141981 0.858563
vt 0.141981 0.858563
vt 0.141981 0.858563
vt 0.141981 0.858563
vt 0.141981 0.858563
vt 0.141981 0.858563
vt 0.141981 0.858563
vt 0.141981 0.858563
vt 0.141981 0.858563
vt 0.141981 0.858563
vt 0.141981 0.858563
vt 0.141981 0.858563
vt 0.141981 0.858563
vt 0.141981 0.858563
vt 0.141981 0.858563
vt 0.141981 0.858563
vt 0.141981 0.858563
vt 0.141981 0.858563
vt 0.141981 0.858563
vt 0.141981 0.858563
vt 0.141981 0.858563
vt 0.141981 0.858563
vt 0.141981 0.858563
vt 0.141981 0.858563
vt 0.141981 0.858563
vt 0.141981 0.858563
vt 0.141981 0.858563
vt 0.141981 0.858563
vt 0.141981 0.858563
vt 0.141981 0.858563
vt 0.141981 0.858563
vt 0.141981 0.858563
vt 0.141981 0.858563
vt 0.141981 0.858563
vt 0.141981 0.858563
vt 0.141981 0.858563
vt 0.141981 0.858563
vt 0.141981 0.858563
vt 0.141981 0.858563
vt 0.141981 0.858563
vt 0.141981 0.858563
vt 0.141981 0.858563
vt 0.141981 0.858563
vt 0.141981 0.858563
vt 0.141981 0.858563
vt 0.141981 0.858563
vt 0.141981 0.858563
vt 0.141981 0.858563
vt 0.141981 0.858563
vt 0.141981 0.858563
vt 0.141981 0.858563
vt 0.141981 0.858563
vt 0.141981 0.858563
vt 0.141981 0.858563
vt 0.141981 0.858563
vt 0.141981 0.858563
vt 0.141981 0.858563
vn -0.4089 0.9125 0.0053
vn -0.5574 0.8301 0.0131
vn -0.5232 0.8501 -0.0601
vn -0.4063 0.9136 -0.0153
vn -0.3810 0.9225 -0.0619
vn -0.4888 0.8538 -0.1792
vn -0.3654 0.9189 -0.1484
vn -0.4729 0.8444 0.2516
vn -0.4136 0.8694 0.2701
vn -0.6232 0.7665 0.1552
vn -0.4945 0.8624 0.1082
vn -0.4359 0.8041 0.4042
vn -0.3636 0.8672 0.3402
vn -0.7066 0.7060 0.0469
vn -0.7022 0.7075 -0.0792
vn -0.5444 0.7932 0.2730
vn -0.6504 0.7410 0.1672
vn -0.6432 0.7409 -0.1931
vn -0.4880 0.8131 -0.3173
vn -0.4929 0.8230 -0.2823
vn -0.4459 0.7934 -0.4143
vn -0.7267 0.6870 -0.0020
vn -0.6019 0.7914 -0.1068
vn -0.5671 0.7913 -0.2285
vn -0.3756 0.9253 0.0524
vn -0.3111 0.9436 0.1136
vn -0.1575 0.9124 0.3777
vn -0.1806 0.9370 0.2990
vn -0.2213 0.8857 0.4080
vn -0.3806 0.8280 0.4118
vn -0.4427 0.8598 0.2546
vn -0.5180 0.8528 0.0657
vn -0.2276 0.8241 -0.5186
vn -0.0660 0.8358 -0.5451
vn -0.0497 0.9052 -0.4221
vn -0.1417 0.8989 -0.4147
vn -0.5666 0.8240 0.0035
vn -0.3247 0.8399 -0.4349
vn -0.1719 0.8577 0.4845
vn -0.1596 0.9423 0.2943
vn -0.3422 0.7874 -0.5127
vn -0.1197 0.9502 0.2877
vn -0.0485 0.9561 0.2889
vn -0.1100 0.9056 0.4097
vn -0.2485 0.9686 -0.0099
vn -0.2758 0.9483 -0.1571
vn -0.2547 0.9238 -0.2858
vn -0.2496 0.9100 -0.3309
vn -0.0335 0.9535 0.2995
vn -0.0071 0.8935 0.4489
vn -0.2111 0.8525 -0.4782
vn -0.0507 0.8887 0.4557
vn -0.1477 0.9074 0.3935
vn 0.0088 0.9501 0.3120
vn 0.0811 0.9441 0.3196
vn -0.0097 0.9833 -0.1817
vn -0.0318 0.9748 -0.2207
vn 0.0552 0.9975 0.0453
vn -0.1115 0.9566 -0.2691
vn -0.1275 0.8657 -0.4840
vn 0.1669 0.9781 -0.1244
vn 0.0168 0.9816 -0.1904
vn -0.0672 0.9333 0.3529
vn 0.0144 0.9703 -0.2416
vn 0.0077 0.8530 -0.5219
vn 0.0143 0.8241 -0.5663
vn 0.0234 0.9229 -0.3843
vn 0.0946 0.9480 0.3040
vn -0.0767 0.9649 0.2510
vn 0.1358 0.9664 0.2183
vn 0.1353 0.9840 -0.1161
vn 0.2492 0.9451 -0.2113
vn 0.2372 0.9373 0.2554
vn 0.2101 0.9768 0.0424
vn 0.2334 0.9152 -0.3286
vn 0.1659 0.8277 -0.5360
vn -0.2215 0.9603 0.1694
vn -0.1330 0.9869 -0.0912
vn 0.1047 0.7467 -0.6568
vn 0.0479 0.8901 0.4533
vn -0.0049 0.9870 -0.1604
vn 0.0703 0.9943 -0.0799
vn -0.3731 0.8847 -0.2794
vn -0.1479 0.9532 -0.2636
vn 0.2364 0.9580 -0.1623
vn 0.0719 0.8806 -0.4684
vn 0.0350 0.9472 0.3188
vn 0.0520 0.9132 0.4043
vn 0.0478 0.9054 0.4219
vn -0.0304 0.9120 0.4090
vn -0.3037 0.8849 0.3530
vn -0.3530 0.9222 0.1582
vn 0.1527 0.9350 -0.3202
vn -0.0219 0.9111 -0.4115
vn 0.2548 0.8161 -0.5186
vn -0.0394 0.8780 0.4770
vn -0.0772 0.8462 0.5273
vn 0.0401 0.8897 0.4547
vn -0.2497 0.8686 0.4280
vn -0.3256 0.8586 -0.3959
vn -0.2538 0.8719 -0.4188
vn -0.2737 0.9525 -0.1333
vn -0.0684 0.8914 0.4480
vn -0.1086 0.9790 0.1727
vn 0.0270 0.9671 -0.2528
vn -0.3044 0.8837 -0.3555
vn -0.0290 0.8792 -0.4756
vn -0.1726 0.8503 -0.4972
vn 0.1710 0.8476 0.5024
vn 0.0359 0.8589 0.5108
vn 0.0858 0.8643 -0.4956
vn -0.0207 0.9145 -0.4040
vn 0.1688 0.9839 0.0589
vn 0.0588 0.9615 -0.2685
vn 0.1427 0.8475 0.5112
vn 0.2344 0.9047 0.3559
vn -0.0546 0.8358 -0.5463
vn 0.0499 0.8215 -0.5681
vn 0.0609 0.9119 -0.4058
vn 0.0104 0.9670 -0.2547
vn 0.2033 0.8461 0.4927
vn 0.3094 0.8451 0.4360
vn 0.4966 0.8587 -0.1265
vn 0.3904 0.8088 -0.4399
vn 0.4372 0.8005 0.4099
vn 0.5375 0.8166 0.2102
vn 0.4371 0.8087 0.3936
vn 0.5819 0.7615 0.2856
vn 0.2271 0.8144 -0.5341
vn 0.4108 0.7603 0.5032
vn 0.7388 0.6547 0.1601
vn 0.7687 0.6294 -0.1141
vn 0.7253 0.6171 -0.3051
vn 0.6141 0.7092 -0.3463
vn 0.4839 0.7576 -0.4381
vn 0.3789 0.7798 -0.4984
vn 0.2688 0.8370 -0.4767
vn 0.3908 0.7614 0.5172
vn 0.8407 0.5413 -0.0099
vn 0.8073 0.5792 -0.1134
vn 0.5615 0.6734 0.4809
vn 0.6097 0.7267 0.3165
vn 0.7236 0.6656 0.1825
vn 0.5843 0.7370 -0.3398
vn 0.5091 0.7942 -0.3317
vn 0.6241 0.7608 0.1778
vn 0.6448 0.7632 0.0422
vn 0.6180 0.6951 0.3673
vn -0.2545 0.8712 0.4198
vn 0.6207 0.7823 -0.0525
vn 0.5363 0.8260 -0.1734
vn 0.4685 0.8813 0.0614
vn 0.4743 0.8800 0.0250
vn 0.3799 0.9121 -0.1543
vn 0.5006 0.8498 0.1648
vn 0.3900 0.9183 -0.0680
vn 0.1106 0.9594 0.2593
vn 0.2147 0.8812 0.4211
vn -0.4796 0.7242 -0.4954
vn 0.1171 0.9472 -0.2983
usemtl rpgpp_lt_mat_a.014
s 1
f 3/1/1 10/2/2 11/3/3 4/4/4
f 5/5/5 11/3/3 18/6/6 6/7/7
f 8/8/8 21/9/9 15/10/10 9/11/11
f 8/8/8 13/12/12 14/13/13
f 9/11/11 15/10/10 16/14/14 10/2/2
f 10/2/2 16/14/14 17/15/15 11/3/3
f 15/10/10 22/16/16 23/17/17 16/14/14
f 11/3/3 17/15/15 25/18/18
f 11/3/3 25/18/18 18/6/6
f 14/13/13 21/9/9 8/8/8
f 21/9/9 22/16/16 15/10/10
f 7/19/19 18/6/6 35/20/20 26/21/21
f 23/17/17 24/22/22 16/14/14
f 24/22/22 33/23/23 17/15/15
f 33/23/23 34/24/24 17/15/15
f 17/15/15 34/24/24 25/18/18
f 2/25/25 1/26/26 8/8/8 9/11/11
f 21/9/9 14/13/13 40/27/27 41/28/28
f 21/9/9 42/29/29 29/30/30 22/16/16
f 21/9/9 41/28/28 42/29/29
f 22/16/16 29/30/30 30/31/31 23/17/17
f 24/22/22 23/17/17 30/31/31 31/32/32
f 37/33/33 57/34/34 58/35/35 27/36/36
f 31/32/32 32/37/37 24/22/22
f 34/24/24 35/20/20 25/18/18
f 26/21/21 36/38/38 37/33/33
f 29/30/30 43/39/39 44/40/40 30/31/31
f 19/41/41 37/33/33 27/36/36
f 28/42/42 38/43/43 39/44/44
f 32/37/37 31/32/32 44/40/40 45/45/45
f 33/23/23 32/37/37 45/45/45 46/46/46
f 33/23/23 46/46/46 47/47/47 34/24/24
f 35/20/20 47/47/47 48/48/48 36/38/38
f 39/44/44 38/43/43 50/49/49 66/50/50
f 48/48/48 49/51/51 36/38/38
f 37/33/33 49/51/51 57/34/34
f 40/27/27 39/44/44 66/50/50 67/52/52
f 41/28/28 40/27/27 67/52/52 51/53/53
f 43/39/39 42/29/29 51/53/53 60/54/54
f 44/40/40 43/39/39 60/54/54 61/55/55
f 46/46/46 45/45/45 53/56/56 54/57/57
f 44/40/40 61/55/55 52/58/58
f 45/45/45 52/58/58 53/56/56
f 48/48/48 55/59/59 56/60/60 49/51/51
f 54/57/57 55/59/59 47/47/47
f 54/57/57 53/56/56 70/61/61 63/62/62
f 49/51/51 56/60/60 57/34/34
f 67/52/52 59/63/63 51/53/53
f 2/25/25 9/11/11 10/2/2 3/1/1
f 54/57/57 63/62/62 64/64/64 55/59/59
f 55/59/59 64/64/64 65/65/65 56/60/60
f 56/60/60 65/65/65 72/66/66 57/34/34
f 58/35/35 57/34/34 72/66/66 92/67/67
f 59/63/63 73/68/68 74/69/69 60/54/54
f 67/52/52 73/68/68 59/63/63
f 60/54/54 74/69/69 68/70/70 61/55/55
f 63/62/62 71/71/71 79/72/72 64/64/64
f 62/73/73 68/70/70 69/74/74
f 52/58/58 69/74/74 70/61/61
f 64/64/64 80/75/75 81/76/76 65/65/65
f 79/72/72 80/75/75 64/64/64
f 68/70/70 75/77/77 88/78/78 69/74/74
f 81/76/76 82/79/79 65/65/65
f 66/50/50 84/80/80 67/52/52
f 74/69/69 75/77/77 68/70/70
f 69/74/74 88/78/78 76/81/81 70/61/61
f 71/71/71 70/61/61 76/81/81 77/82/82
f 76/81/81 96/83/83 89/84/84 77/82/82
f 77/82/82 78/85/85 71/71/71
f 82/79/79 101/86/86 72/66/66
f 50/49/49 83/87/87 112/88/88
f 112/88/88 84/80/80 66/50/50
f 84/80/80 85/89/89 73/68/68
f 86/90/90 87/91/91 74/69/69
f 75/77/77 87/91/91 94/92/92
f 75/77/77 94/92/92 88/78/78
f 79/72/72 78/85/85 89/84/84 90/93/93
f 80/75/75 79/72/72 90/93/93 99/94/94
f 81/76/76 80/75/75 99/94/94 91/95/95
f 85/89/89 103/96/96 104/97/97 86/90/90
f 112/88/88 102/98/98 84/80/80
f 102/98/98 103/96/96 84/80/80
f 86/90/90 104/97/97 93/99/99 87/91/91
f 90/93/93 89/84/84 97/100/100 98/101/101
f 87/91/91 93/99/99 94/92/92
f 88/78/78 95/102/102 96/83/83
f 94/92/92 93/99/99 105/103/103 106/104/104
f 90/93/93 98/101/101 99/94/94
f 101/86/86 110/105/105 92/67/67
f 104/97/97 105/103/103 93/99/99
f 97/100/100 96/83/83 95/102/102 107/106/106
f 99/94/94 98/101/101 119/107/107 108/108/108
f 97/100/100 107/106/106 119/107/107
f 102/98/98 113/109/109 114/110/110 103/96/96
f 100/111/111 108/108/108 109/112/112
f 107/106/106 95/102/102 117/113/113 118/114/114
f 114/110/110 115/115/115 104/97/97
f 105/103/103 115/115/115 116/116/116
f 116/116/116 117/113/113 106/104/104
f 109/112/112 108/108/108 120/117/117 130/118/118
f 107/106/106 118/114/114 119/107/107
f 110/105/105 109/112/112 131/119/119 121/120/120
f 109/112/112 130/118/118 131/119/119
f 114/110/110 123/121/121 124/122/122 115/115/115
f 119/107/107 118/114/114 127/123/123 128/124/124
f 115/115/115 124/122/122 125/125/125
f 116/116/116 125/125/125 126/126/126
f 126/126/126 127/123/123 117/113/113
f 125/125/125 124/122/122 135/127/127 136/128/128
f 120/117/117 128/124/124 129/129/129
f 120/117/117 129/129/129 130/118/118
f 123/121/121 134/130/130 135/127/127
f 125/125/125 136/128/128 145/131/131 126/126/126
f 126/126/126 145/131/131 137/132/132 127/123/123
f 127/123/123 137/132/132 138/133/133 128/124/124
f 128/124/124 148/134/134 139/135/135 129/129/129
f 138/133/133 148/134/134 128/124/124
f 130/118/118 140/136/136 141/137/137 131/119/119
f 139/135/135 140/136/136 129/129/129
f 123/121/121 113/109/109 133/138/138 134/130/130
f 145/131/131 146/139/139 147/140/140 137/132/132
f 133/138/138 142/141/141 134/130/130
f 136/128/128 143/142/142 144/143/143
f 139/135/135 149/144/144 150/145/145 140/136/136
f 148/134/134 149/144/144 139/135/135
f 135/127/127 134/130/130 142/141/141 143/142/142
f 143/142/142 152/146/146 153/147/147 144/143/143
f 142/141/141 151/148/148 143/142/142
f 39/44/44 40/27/27 20/149/149
f 146/139/139 153/147/147 154/150/150 147/140/140
f 147/140/140 154/150/150 155/151/151 148/134/134
f 152/146/146 157/152/152 158/153/153 153/147/147
f 155/151/151 160/154/154 150/145/145
f 140/136/136 150/145/145 141/137/137
f 143/142/142 151/148/148 152/146/146
f 151/148/148 156/155/155 152/146/146
f 20/149/149 28/42/42 39/44/44
f 154/150/150 158/153/153 159/156/156
f 155/151/151 159/156/156 160/154/154
f 111/157/157 122/158/158 112/88/88
f 112/88/88 122/158/158 113/109/109
f 156/155/155 157/152/152 152/146/146
f 122/158/158 133/138/138 113/109/109
f 6/7/7 18/6/6 7/19/19
f 12/159/159 26/21/21 19/41/41
f 131/119/119 141/137/137 132/160/160
f 4/4/4 11/3/3 5/5/5
f 12/159/159 7/19/19 26/21/21
f 16/14/14 24/22/22 17/15/15
f 18/6/6 25/18/18 35/20/20
f 19/41/41 26/21/21 37/33/33
f 13/12/12 20/149/149 14/13/13
f 20/149/149 40/27/27 14/13/13
f 24/22/22 32/37/37 33/23/23
f 26/21/21 35/20/20 36/38/38
f 29/30/30 42/29/29 43/39/39
f 31/32/32 30/31/31 44/40/40
f 34/24/24 47/47/47 35/20/20
f 37/33/33 36/38/38 49/51/51
f 42/29/29 41/28/28 51/53/53
f 45/45/45 44/40/40 52/58/58
f 46/46/46 54/57/57 47/47/47
f 47/47/47 55/59/59 48/48/48
f 51/53/53 59/63/63 60/54/54
f 52/58/58 61/55/55 62/73/73
f 53/56/56 52/58/58 70/61/61
f 61/55/55 68/70/70 62/73/73
f 52/58/58 62/73/73 69/74/74
f 63/62/62 70/61/61 71/71/71
f 65/65/65 82/79/79 72/66/66
f 66/50/50 50/49/49 112/88/88
f 67/52/52 84/80/80 73/68/68
f 73/68/68 86/90/90 74/69/69
f 71/71/71 78/85/85 79/72/72
f 72/66/66 101/86/86 92/67/67
f 73/68/68 85/89/89 86/90/90
f 74/69/69 87/91/91 75/77/77
f 76/81/81 88/78/78 96/83/83
f 77/82/82 89/84/84 78/85/85
f 81/76/76 91/95/95 82/79/79
f 82/79/79 91/95/95 101/86/86
f 84/80/80 103/96/96 85/89/89
f 88/78/78 94/92/92 95/102/102
f 89/84/84 96/83/83 97/100/100
f 91/95/95 99/94/94 100/111/111
f 91/95/95 100/111/111 101/86/86
f 103/96/96 114/110/110 104/97/97
f 95/102/102 94/92/92 106/104/104
f 98/101/101 97/100/100 119/107/107
f 100/111/111 99/94/94 108/108/108
f 100/111/111 109/112/112 101/86/86
f 101/86/86 109/112/112 110/105/105
f 83/87/87 111/157/157 112/88/88
f 102/98/98 112/88/88 113/109/109
f 105/103/103 104/97/97 115/115/115
f 106/104/104 105/103/103 116/116/116
f 95/102/102 106/104/104 117/113/113
f 108/108/108 119/107/107 120/117/117
f 114/110/110 113/109/109 123/121/121
f 116/116/116 115/115/115 125/125/125
f 116/116/116 126/126/126 117/113/113
f 118/114/114 117/113/113 127/123/123
f 120/117/117 119/107/107 128/124/124
f 121/120/120 131/119/119 132/160/160
f 124/122/122 123/121/121 135/127/127
f 129/129/129 140/136/136 130/118/118
f 135/127/127 143/142/142 136/128/128
f 136/128/128 144/143/143 145/131/131
f 137/132/132 147/140/140 138/133/133
f 138/133/133 147/140/140 148/134/134
f 144/143/143 153/147/147 145/131/131
f 145/131/131 153/147/147 146/139/139
f 148/134/134 155/151/151 149/144/144
f 149/144/144 155/151/151 150/145/145
f 153/147/147 158/153/153 154/150/150
f 155/151/151 154/150/150 159/156/156
