# Blender v3.0.0 OBJ File: 'FBX_to_OBJ.blend'
# www.blender.org
mtllib SM_terrain_path2.mtl
o rpgpp_lt_terrain_path_01b_rpgpp_lt_terrain_path_01b.001
v 3.845541 0.010161 0.042105
v -3.523950 -0.055722 1.463023
v -3.896084 0.087047 -0.015691
v -1.196886 -0.055721 -1.506731
v -3.074015 -0.007838 -1.230581
v 3.877836 -0.055722 1.553541
v 0.573444 0.057237 0.982735
v 2.451977 -0.004975 -1.148383
v -2.385372 0.049070 -0.102287
v -4.879428 -0.055721 -0.251445
v -4.547985 -0.055721 -1.475281
v -1.236729 0.010270 -1.081023
v -2.920339 -0.055721 -1.759954
v -4.378387 -0.055722 1.414118
v -4.751341 -0.055721 -0.693860
v -3.845962 -0.048124 -1.089882
v -3.423246 0.040238 -0.439657
v -3.012394 0.070513 -0.762788
v -1.652850 0.069039 -0.464177
v -0.184407 -0.084542 -1.259629
v 2.293310 -0.055721 -1.638838
v 3.537333 -0.055721 -1.592174
v 4.505198 -0.055721 -1.402283
v -2.608934 0.039377 0.342513
v -2.972172 0.020424 0.674636
v -2.915387 0.032876 0.001107
v 1.062779 -0.055721 -1.475511
v 1.260861 0.041202 -0.393792
v 3.205602 0.026070 -0.267297
v 2.187418 0.011059 -0.434136
v -2.227988 -0.055722 1.600062
v -0.858456 0.029358 0.922311
v -1.372304 -0.088087 1.044475
v -2.163060 0.056675 0.796873
v -0.258014 -0.015532 0.798139
v -0.274885 0.010497 -0.140583
v -1.175267 0.027353 0.383569
v 0.655357 0.072538 0.004103
v 2.992285 0.009168 0.202619
v 1.771636 0.003409 0.146999
v 2.415992 0.004647 0.204109
v 4.849954 -0.055721 -0.373263
v -0.950616 -0.055722 1.450643
v -0.107192 -0.055722 1.682862
v 1.096063 -0.055722 1.537278
v 1.599516 -0.001185 0.718716
v 2.450796 -0.055722 1.736429
v 2.624712 0.030615 1.392750
v 1.837711 -0.055722 1.506877
v 3.232486 -0.055722 1.594940
v 4.016736 0.038754 0.939022
v 2.694661 0.067621 0.799189
v 4.885014 -0.055722 0.451017
v 4.565554 -0.055722 1.527449
v -2.916553 -0.355722 1.906178
v -1.253132 -0.355721 -1.889822
v 3.656358 -0.355722 1.993125
v -5.329204 -0.355721 -0.302162
v -5.070889 -0.355721 -1.670369
v -3.188389 -0.355721 -2.089415
v -4.781686 -0.355722 1.517899
v -5.189236 -0.355721 -0.785616
v 2.578127 -0.355721 -2.065032
v 4.162603 -0.355721 -1.906072
v 5.099062 -0.355721 -1.652295
v 1.164204 -0.355721 -1.886555
v 5.562359 -0.355721 -0.250192
v -0.564407 -0.355722 1.919539
v 1.543593 -0.355722 1.896893
v 2.507853 -0.355722 2.039771
v 5.095769 -0.355722 1.688015
vt 0.834724 0.214688
vt 0.834724 0.214688
vt 0.834724 0.214688
vt 0.834724 0.214688
vt 0.834724 0.214688
vt 0.834724 0.214688
vt 0.834724 0.214688
vt 0.834724 0.214688
vt 0.834724 0.214688
vt 0.834724 0.214688
vt 0.834724 0.214688
vt 0.834724 0.214688
vt 0.834724 0.214688
vt 0.834724 0.214688
vt 0.834724 0.214688
vt 0.834724 0.214688
vt 0.834724 0.214688
vt 0.834724 0.214688
vt 0.834724 0.214688
vt 0.834724 0.214688
vt 0.834724 0.214688
vt 0.834724 0.214688
vt 0.834724 0.214688
vt 0.834724 0.214688
vt 0.834724 0.214688
vt 0.834724 0.214688
vt 0.834724 0.214688
vt 0.834724 0.214688
vt 0.834724 0.214688
vt 0.834724 0.214688
vt 0.834724 0.214688
vt 0.834724 0.214688
vt 0.834724 0.214688
vt 0.834724 0.214688
vt 0.834724 0.214688
vt 0.834724 0.214688
vt 0.834724 0.214688
vt 0.834724 0.214688
vt 0.834724 0.214688
vt 0.834724 0.214688
vt 0.834724 0.214688
vt 0.834724 0.214688
vt 0.834724 0.214688
vt 0.834724 0.214688
vt 0.834724 0.214688
vt 0.834724 0.214688
vt 0.834724 0.214688
vt 0.834724 0.214688
vt 0.834724 0.214688
vt 0.834724 0.214688
vt 0.834724 0.214688
vt 0.834724 0.214688
vt 0.834724 0.214688
vt 0.834724 0.214688
vt 0.834724 0.214688
vt 0.834724 0.214688
vt 0.834724 0.214688
vt 0.834724 0.214688
vt 0.834724 0.214688
vt 0.834724 0.214688
vt 0.834724 0.214688
vt 0.834724 0.214688
vt 0.834724 0.214688
vt 0.834724 0.214688
vt 0.834724 0.214688
vt 0.834724 0.214688
vt 0.834724 0.214688
vt 0.834724 0.214688
vt 0.834724 0.214688
vt 0.834724 0.214688
vt 0.834724 0.214688
vn 0.0412 0.9935 -0.1064
vn -0.0030 0.9065 -0.4222
vn -0.0375 0.9914 -0.1251
vn -0.3022 0.9486 -0.0944
vn -0.3924 0.9197 0.0075
vn -0.0457 0.9988 -0.0185
vn -0.0406 0.9973 -0.0604
vn -0.0316 0.9982 -0.0507
vn -0.2078 0.9267 -0.3130
vn -0.0295 0.9972 -0.0686
vn -0.0118 0.9996 0.0257
vn 0.0152 0.9996 -0.0231
vn 0.0084 1.0000 0.0019
vn 0.0404 0.9217 -0.3857
vn -0.2329 0.8778 0.4186
vn -0.0203 0.9985 0.0503
vn 0.0017 0.9998 0.0184
vn -0.0391 0.9992 0.0074
vn 0.0310 0.9962 0.0808
vn 0.0135 0.9984 0.0550
vn -0.0021 0.9997 -0.0263
vn -0.0277 0.9385 -0.3440
vn -0.0152 0.9996 -0.0246
vn 0.0105 0.9983 -0.0578
vn 0.0167 0.9999 -0.0036
vn 0.0164 0.9983 -0.0552
vn 0.1793 0.9410 -0.2869
vn 0.0403 0.9351 -0.3521
vn 0.0059 0.9999 -0.0129
vn 0.0414 0.9988 -0.0270
vn -0.0660 0.8976 0.4359
vn 0.0196 0.9188 0.3941
vn -0.0191 0.9958 0.0900
vn -0.0220 0.9959 0.0883
vn -0.0216 0.9989 0.0410
vn -0.0166 0.9998 0.0055
vn -0.0198 0.9994 -0.0274
vn 0.0120 0.9990 0.0420
vn 0.0300 0.9992 0.0269
vn -0.0106 0.9991 -0.0399
vn -0.0369 0.9444 0.3268
vn -0.0271 0.8953 0.4447
vn -0.0044 0.9968 0.0801
vn 0.0399 0.9074 0.4183
vn -0.0677 0.9378 0.3406
vn 0.0043 0.9901 0.1404
vn 0.0517 0.9974 0.0503
vn 0.0456 0.9210 0.3868
vn -0.0459 0.8835 0.4662
vn 0.0459 0.9106 0.4107
vn -0.0234 0.9256 -0.3779
vn 0.2080 0.9050 0.3711
vn 0.0671 0.7777 0.6250
vn 0.3870 0.8668 0.3144
vn 0.2478 0.9673 -0.0534
vn 0.3005 0.9525 0.0488
vn 0.0036 0.8000 -0.6000
vn -0.0431 0.7957 -0.6041
vn -0.5213 0.8439 -0.1265
vn -0.5545 0.8322 -0.0051
vn -0.4478 0.8094 0.3799
vn 0.4202 0.9068 -0.0339
vn 0.3211 0.9007 -0.2925
vn -0.0596 0.7603 0.6468
vn 0.1130 0.8079 -0.5783
vn -0.0682 0.7599 0.6465
vn -0.0324 0.7632 0.6454
vn 0.0471 0.7694 -0.6370
vn -0.0612 0.7482 -0.6606
vn -0.0310 0.7800 0.6250
vn -0.3962 0.8645 -0.3092
usemtl rpgpp_lt_mat_a.028
s 1
f 12/1/1 13/2/2 5/3/3
f 15/4/4 10/5/5 3/6/6
f 16/7/7 15/4/4 17/8/8
f 16/7/7 11/9/9 15/4/4
f 5/3/3 16/7/7 18/10/10
f 18/10/10 17/8/8 9/11/11
f 19/12/12 18/10/10 9/11/11
f 12/1/1 5/3/3 19/12/12
f 20/13/13 4/14/14 12/1/1
f 3/6/6 10/5/5 14/15/15
f 25/16/16 3/6/6 14/15/15
f 26/17/17 17/8/8 3/6/6
f 9/11/11 24/18/18 34/19/19
f 37/20/20 19/12/12 9/11/11
f 36/21/21 12/1/1 19/12/12
f 27/22/22 36/21/21 38/23/23
f 27/22/22 38/23/23 28/24/24
f 28/24/24 38/23/23 30/25/25
f 8/26/26 28/24/24 30/25/25
f 23/27/27 22/28/28 29/29/29
f 22/28/28 8/26/26 30/25/25
f 1/30/30 23/27/27 29/29/29
f 25/16/16 2/31/31 34/19/19
f 25/16/16 14/15/15 2/31/31
f 34/19/19 2/31/31 31/32/32
f 34/19/19 24/18/18 25/16/16
f 33/33/33 34/19/19 31/32/32
f 37/20/20 32/34/34 35/35/35
f 36/21/21 37/20/20 35/35/35
f 38/23/23 36/21/21 35/35/35
f 52/36/36 41/37/37 46/38/38
f 30/25/25 40/39/39 41/37/37
f 29/29/29 39/40/40 1/30/30
f 29/29/29 30/25/25 41/37/37
f 35/35/35 32/34/34 43/41/41
f 35/35/35 43/41/41 44/42/42
f 7/43/43 44/42/42 45/44/44
f 49/45/45 46/38/38 45/44/44
f 48/46/46 52/36/36 49/45/45
f 52/36/36 46/38/38 49/45/45
f 51/47/47 52/36/36 50/48/48
f 1/30/30 52/36/36 51/47/47
f 50/48/48 48/46/46 47/49/49
f 51/47/47 50/48/48 6/50/50
f 5/3/3 13/2/2 16/7/7
f 13/2/2 11/9/9 16/7/7
f 12/1/1 4/14/14 13/2/2
f 20/13/13 27/22/22 4/14/14
f 17/8/8 15/4/4 3/6/6
f 18/10/10 16/7/7 17/8/8
f 19/12/12 5/3/3 18/10/10
f 27/22/22 20/13/13 36/21/21
f 36/21/21 20/13/13 12/1/1
f 21/51/51 27/22/22 8/26/26
f 22/28/28 21/51/51 8/26/26
f 25/16/16 26/17/17 3/6/6
f 24/18/18 9/11/11 26/17/17
f 24/18/18 26/17/17 25/16/16
f 26/17/17 9/11/11 17/8/8
f 37/20/20 9/11/11 34/19/19
f 37/20/20 36/21/21 19/12/12
f 8/26/26 27/22/22 28/24/24
f 29/29/29 22/28/28 30/25/25
f 54/52/52 6/50/50 57/53/53 71/54/54
f 37/20/20 33/33/33 32/34/34
f 37/20/20 34/19/19 33/33/33
f 7/43/43 38/23/23 35/35/35
f 40/39/39 38/23/23 46/38/38
f 46/38/38 38/23/23 7/43/43
f 39/40/40 41/37/37 52/36/36
f 46/38/38 41/37/37 40/39/39
f 30/25/25 38/23/23 40/39/39
f 1/30/30 39/40/40 52/36/36
f 29/29/29 41/37/37 39/40/40
f 42/55/55 23/27/27 1/30/30
f 43/41/41 33/33/33 31/32/32
f 43/41/41 32/34/34 33/33/33
f 7/43/43 35/35/35 44/42/42
f 46/38/38 7/43/43 45/44/44
f 47/49/49 48/46/46 49/45/45
f 50/48/48 52/36/36 48/46/46
f 53/56/56 1/30/30 51/47/47
f 54/52/52 53/56/56 51/47/47
f 42/55/55 1/30/30 53/56/56
f 54/52/52 51/47/47 6/50/50
f 27/22/22 21/51/51 63/57/57 66/58/58
f 10/5/5 15/4/4 62/59/59 58/60/60
f 6/50/50 50/48/48 57/53/53
f 14/15/15 10/5/5 58/60/60 61/61/61
f 23/27/27 42/55/55 67/62/62 65/63/63
f 2/31/31 14/15/15 61/61/61 55/64/64
f 21/51/51 22/28/28 64/65/65 63/57/57
f 44/42/42 43/41/41 68/66/66
f 49/45/45 45/44/44 69/67/67
f 43/41/41 31/32/32 55/64/64 68/66/66
f 31/32/32 2/31/31 55/64/64
f 53/56/56 54/52/52 71/54/54 67/62/62
f 22/28/28 23/27/27 65/63/63 64/65/65
f 45/44/44 44/42/42 68/66/66 69/67/67
f 42/55/55 53/56/56 67/62/62
f 13/2/2 4/14/14 56/68/68 60/69/69
f 47/49/49 49/45/45 69/67/67 70/70/70
f 50/48/48 47/49/49 70/70/70 57/53/53
f 15/4/4 11/9/9 59/71/71 62/59/59
f 4/14/14 27/22/22 66/58/58 56/68/68
f 11/9/9 13/2/2 60/69/69 59/71/71
