# Blender v3.0.0 OBJ File: 'FBX_to_OBJ.blend'
# www.blender.org
mtllib SM_terrain_sand.mtl
o rpgpp_lt_terrain_sand_01_rpgpp_lt_terrain_sand_01.001
v -4.305298 -0.097071 1.063742
v 0.685266 0.138004 -3.473847
v -4.967910 -0.097071 -2.317227
v -3.827595 -0.008017 -0.877860
v -2.606217 0.227202 1.992373
v -3.367416 0.077999 -2.742116
v -2.841639 -0.097070 -5.216245
v -1.733510 0.136793 2.830860
v -0.298422 0.323460 1.920369
v -0.731598 0.334479 1.241510
v 0.574109 -0.097070 -5.092683
v 2.117061 0.151399 3.813613
v 1.602911 0.035038 -3.560341
v 3.680571 0.046309 -3.485333
v 5.488995 -0.097071 -0.517571
v 5.204021 -0.049188 -2.482861
v -2.439030 0.187041 2.851898
v -0.589198 0.209405 3.076956
v -1.494579 -0.128308 -4.203535
v 0.075151 0.104861 -3.609626
v 1.584093 0.307605 0.502411
v 3.857560 -0.020242 2.776283
v 3.502023 0.157656 -2.035522
v 4.159217 -0.097070 -4.707571
v 5.015784 -0.097070 -3.709182
v 4.484679 -0.031080 -0.723781
v 5.686209 -0.097071 -2.472920
v 2.004342 -0.090944 -4.276089
v 4.423963 -0.097070 -3.927970
v 4.998148 -0.089474 -3.186335
v 4.084610 0.128828 -2.856333
v 4.433138 0.111068 -2.475620
v 3.802052 0.109593 -1.261405
v 4.502867 -0.125892 0.312078
v 4.512830 -0.097071 2.651921
v 3.948240 -0.097072 3.695740
v 3.812829 -0.097072 4.108755
v 2.897097 0.145393 -2.203090
v 2.647931 0.074630 -2.774501
v 3.480228 0.139217 -2.547019
v 4.164398 -0.097071 1.634072
v 3.153862 0.182441 1.474333
v 2.622902 0.271645 3.281651
v 2.793039 0.317295 2.637774
v 1.077430 0.200652 -2.318824
v 1.934582 0.247372 -0.835973
v 1.882482 0.225481 -1.349973
v 2.340950 0.165483 -2.038877
v 1.972488 0.263316 -0.239706
v 3.136525 0.177820 -0.035644
v 2.661785 0.204414 -1.008966
v 2.778455 0.239861 0.809136
v 2.083483 0.330265 2.847628
v 2.309283 0.345288 1.931873
v 2.356661 0.376248 2.488990
v 1.974647 -0.097072 5.120357
v 0.158183 0.179401 -2.668532
v 1.299017 0.263693 -1.046844
v 0.733481 0.315830 -0.326561
v 0.784040 0.354684 0.933177
v 1.712956 0.329831 1.533493
v 0.290543 0.338775 2.099085
v 0.103816 0.363695 1.458328
v 0.682028 0.328359 2.343906
v 0.836962 0.346660 1.810153
v 0.037078 0.272379 2.934056
v 0.974998 0.153909 3.765120
v 1.402945 0.313746 2.548303
v 1.342051 -0.091568 4.802644
v -0.870981 -0.097072 6.163436
v 0.411797 -0.021244 -4.500332
v -0.480448 0.082433 -3.512409
v -0.502101 0.171886 -2.450468
v -0.013056 0.283936 -0.843788
v 0.357998 0.251824 -1.515105
v -0.555978 0.322330 -0.309668
v -0.262002 0.373991 0.769555
v -1.069826 0.079402 -3.146387
v -1.652043 0.112292 -2.521821
v -1.579589 0.218843 -1.114452
v -0.599298 0.236012 -1.450987
v -1.934435 0.233067 0.036959
v -1.886724 0.244536 1.196869
v -0.978228 0.281097 1.964866
v -0.838686 0.332493 0.436991
v 0.026124 0.092037 4.239827
v -1.722724 0.106444 4.536258
v -1.125484 0.110444 3.314222
v -0.796014 0.042336 5.138321
v -1.704365 -0.097072 5.554738
v -2.561267 -0.054590 -3.384243
v -2.541040 0.147157 -1.826812
v -2.962843 0.163353 -1.581785
v -3.031440 0.152945 0.792357
v -2.582911 0.171364 -0.804775
v -2.878829 0.203492 1.580035
v -1.890392 0.233559 1.988136
v -2.385355 0.222099 2.312237
v -2.724489 0.097588 3.467138
v -2.232956 0.072532 3.782217
v -2.640662 -0.097072 5.200670
v -3.956938 0.021408 -3.695618
v -3.837125 0.049155 -2.332999
v -4.206991 -0.097071 0.217375
v -3.885335 0.236258 2.429983
v -3.772126 0.205663 2.032921
v -3.176597 0.237445 2.407580
v -3.867785 0.065827 3.565879
v -3.522644 0.241324 2.847682
v -4.759837 -0.097072 4.478185
v -4.427456 -0.059785 4.009448
v -3.295891 -0.103509 4.366775
v -4.486032 -0.097070 -4.893770
v -5.187864 -0.097070 -3.546875
v -4.405463 -0.004481 -3.519603
v -5.007630 -0.097071 -1.093194
v -4.150022 -0.096491 -1.391869
v -5.176443 -0.097071 2.375085
v -4.780921 0.037104 2.179262
v -5.337938 -0.097072 3.181900
v -4.625984 -0.007662 3.550476
v -4.048235 0.192070 2.814549
v -0.784616 -0.120562 -4.669456
vt 0.837426 0.218871
vt 0.837426 0.218871
vt 0.837426 0.218871
vt 0.837426 0.218871
vt 0.837426 0.218871
vt 0.837426 0.218871
vt 0.837426 0.218871
vt 0.837426 0.218871
vt 0.837426 0.218871
vt 0.837426 0.218871
vt 0.837426 0.218871
vt 0.837426 0.218871
vt 0.837426 0.218871
vt 0.837426 0.218871
vt 0.837426 0.218871
vt 0.837426 0.218871
vt 0.837426 0.218871
vt 0.837426 0.218871
vt 0.837426 0.218871
vt 0.837426 0.218871
vt 0.837426 0.218871
vt 0.837426 0.218871
vt 0.837426 0.218871
vt 0.837426 0.218871
vt 0.837426 0.218871
vt 0.837426 0.218871
vt 0.837426 0.218871
vt 0.837426 0.218871
vt 0.837426 0.218871
vt 0.837426 0.218871
vt 0.837426 0.218871
vt 0.837426 0.218871
vt 0.837426 0.218871
vt 0.837426 0.218871
vt 0.837426 0.218871
vt 0.837426 0.218871
vt 0.837426 0.218871
vt 0.837426 0.218871
vt 0.837426 0.218871
vt 0.837426 0.218871
vt 0.837426 0.218871
vt 0.837426 0.218871
vt 0.837426 0.218871
vt 0.837426 0.218871
vt 0.837426 0.218871
vt 0.837426 0.218871
vt 0.837426 0.218871
vt 0.837426 0.218871
vt 0.837426 0.218871
vt 0.837426 0.218871
vt 0.837426 0.218871
vt 0.837426 0.218871
vt 0.837426 0.218871
vt 0.837426 0.218871
vt 0.837426 0.218871
vt 0.837426 0.218871
vt 0.837426 0.218871
vt 0.837426 0.218871
vt 0.837426 0.218871
vt 0.837426 0.218871
vt 0.837426 0.218871
vt 0.837426 0.218871
vt 0.837426 0.218871
vt 0.837426 0.218871
vt 0.837426 0.218871
vt 0.837426 0.218871
vt 0.837426 0.218871
vt 0.837426 0.218871
vt 0.837426 0.218871
vt 0.837426 0.218871
vt 0.837426 0.218871
vt 0.837426 0.218871
vt 0.837426 0.218871
vt 0.837426 0.218871
vt 0.837426 0.218871
vt 0.837426 0.218871
vt 0.837426 0.218871
vt 0.837426 0.218871
vt 0.837426 0.218871
vt 0.837426 0.218871
vt 0.837426 0.218871
vt 0.837426 0.218871
vt 0.837426 0.218871
vt 0.837426 0.218871
vt 0.837426 0.218871
vt 0.837426 0.218871
vt 0.837426 0.218871
vt 0.837426 0.218871
vt 0.837426 0.218871
vt 0.837426 0.218871
vt 0.837426 0.218871
vt 0.837426 0.218871
vt 0.837426 0.218871
vt 0.837426 0.218871
vt 0.837426 0.218871
vt 0.837426 0.218871
vt 0.837426 0.218871
vt 0.837426 0.218871
vt 0.837426 0.218871
vt 0.837426 0.218871
vt 0.837426 0.218871
vt 0.837426 0.218871
vt 0.837426 0.218871
vt 0.837426 0.218871
vt 0.837426 0.218871
vt 0.837426 0.218871
vt 0.837426 0.218871
vt 0.837426 0.218871
vt 0.837426 0.218871
vt 0.837426 0.218871
vt 0.837426 0.218871
vt 0.837426 0.218871
vt 0.837426 0.218871
vt 0.837426 0.218871
vt 0.837426 0.218871
vt 0.837426 0.218871
vt 0.837426 0.218871
vt 0.837426 0.218871
vt 0.837426 0.218871
vt 0.837426 0.218871
vt 0.837426 0.218871
vt 0.837426 0.218871
vt 0.837426 0.218871
vn 0.1247 0.9906 0.0555
vn 0.0845 0.9963 -0.0152
vn 0.1373 0.9902 -0.0242
vn 0.1288 0.9872 -0.0942
vn 0.0448 0.9956 -0.0829
vn 0.0148 0.9924 -0.1223
vn 0.1011 0.9923 -0.0719
vn 0.0746 0.9923 -0.0984
vn 0.0097 0.9999 -0.0142
vn 0.1552 0.9879 -0.0058
vn 0.0356 0.9993 -0.0067
vn 0.1261 0.9913 0.0367
vn 0.0755 0.9969 0.0238
vn 0.0436 0.9986 0.0295
vn 0.0189 0.9966 -0.0804
vn -0.0042 0.9942 -0.1077
vn -0.0252 0.9971 -0.0717
vn -0.0099 0.9953 -0.0966
vn 0.0297 0.9964 -0.0790
vn 0.0585 0.9980 -0.0227
vn 0.1394 0.9902 0.0094
vn 0.2034 0.9791 -0.0036
vn 0.1416 0.9895 -0.0273
vn 0.2600 0.9647 -0.0432
vn 0.2010 0.9789 0.0360
vn 0.2176 0.9757 0.0248
vn 0.1780 0.9719 0.1539
vn 0.2332 0.9693 0.0780
vn 0.0952 0.9784 0.1836
vn 0.0181 0.9787 0.2045
vn 0.0711 0.9892 -0.1282
vn 0.0310 0.9968 -0.0740
vn 0.0432 0.9977 -0.0529
vn 0.0438 0.9984 -0.0367
vn 0.0571 0.9979 -0.0290
vn -0.0304 0.9982 -0.0517
vn -0.0246 0.9997 -0.0068
vn 0.0263 0.9995 -0.0161
vn 0.0227 0.9987 -0.0452
vn -0.0229 0.9967 0.0776
vn 0.0467 0.9987 0.0188
vn 0.0214 0.9995 -0.0237
vn 0.0645 0.9962 -0.0584
vn -0.0557 0.9884 0.1410
vn -0.0029 0.9896 -0.1437
vn 0.0287 0.9939 -0.1066
vn 0.0051 0.9959 -0.0906
vn -0.0428 0.9923 -0.1159
vn -0.0049 0.9983 -0.0580
vn -0.0169 0.9972 -0.0723
vn 0.0310 0.9984 -0.0483
vn 0.0516 0.9982 -0.0303
vn -0.0127 0.9995 0.0290
vn 0.0159 0.9996 0.0233
vn -0.0201 0.9984 0.0537
vn -0.0024 0.9981 0.0618
vn 0.0051 0.9855 0.1699
vn -0.0407 0.9907 0.1297
vn -0.0707 0.9901 -0.1210
vn -0.0372 0.9983 -0.0453
vn -0.0401 0.9964 -0.0746
vn -0.0308 0.9971 -0.0694
vn -0.0674 0.9973 0.0301
vn -0.0508 0.9970 0.0579
vn -0.0781 0.9881 0.1327
vn -0.0058 0.9926 0.1213
vn 0.0004 0.9917 0.1284
vn 0.0170 0.9928 0.1184
vn -0.0799 0.9891 -0.1235
vn -0.0320 0.9970 -0.0711
vn -0.0493 0.9974 -0.0524
vn -0.0381 0.9936 -0.1059
vn -0.0210 0.9981 -0.0576
vn -0.0057 0.9980 -0.0635
vn -0.0719 0.9972 -0.0188
vn -0.0909 0.9957 -0.0194
vn -0.0605 0.9963 0.0609
vn -0.0280 0.9984 0.0483
vn -0.0185 0.9949 0.0996
vn -0.0409 0.9942 0.0992
vn 0.0160 0.9928 0.1189
vn -0.0755 0.9816 0.1751
vn 0.0248 0.9991 -0.0330
vn 0.0224 0.9934 -0.1126
vn -0.0209 0.9977 -0.0641
vn -0.0961 0.9953 0.0103
vn -0.1422 0.9882 -0.0569
vn -0.1486 0.9889 -0.0017
vn -0.0721 0.9954 -0.0632
vn -0.0038 0.9997 -0.0256
vn -0.0661 0.9978 0.0022
vn 0.0279 0.9982 0.0530
vn 0.0157 0.9998 0.0111
vn 0.0420 0.9915 0.1228
vn -0.0929 0.9907 0.0998
vn -0.0566 0.9944 0.0892
vn -0.0787 0.9942 0.0738
vn -0.0515 0.9956 -0.0788
vn -0.0200 0.9983 -0.0540
vn -0.0700 0.9974 -0.0194
vn -0.1157 0.9930 0.0215
vn -0.1383 0.9902 0.0187
vn -0.1047 0.9837 -0.1460
vn -0.1952 0.9728 -0.1246
vn -0.0051 0.9935 0.1138
vn -0.1219 0.9921 -0.0298
vn -0.1613 0.9829 0.0886
vn -0.0047 0.9873 0.1588
vn -0.0971 0.9949 -0.0263
vn -0.1195 0.9927 -0.0179
vn -0.0990 0.9943 0.0405
vn -0.1519 0.9884 -0.0076
vn -0.2837 0.9571 -0.0594
vn -0.1991 0.9794 0.0346
vn -0.0455 0.9733 0.2250
vn -0.1307 0.9841 0.1203
vn -0.0098 0.9918 0.1277
vn -0.0287 0.9972 0.0692
vn -0.0373 0.9949 0.0940
vn 0.1172 0.9931 0.0038
vn 0.0033 0.9902 0.1393
vn -0.0382 0.9992 -0.0113
vn -0.3126 0.9451 -0.0954
usemtl rpgpp_lt_mat_a.029
s 1
f 26/1/1 27/2/2 16/3/3
f 29/4/4 24/5/5 14/6/6
f 30/7/7 29/4/4 31/8/8
f 30/7/7 25/9/9 29/4/4
f 16/3/3 30/7/7 32/10/10
f 32/10/10 31/8/8 23/11/11
f 33/12/12 32/10/10 23/11/11
f 26/1/1 16/3/3 33/12/12
f 34/13/13 15/14/14 26/1/1
f 14/6/6 24/5/5 28/15/15
f 39/16/16 14/6/6 28/15/15
f 40/17/17 31/8/8 14/6/6
f 23/11/11 38/18/18 48/19/19
f 51/20/20 33/12/12 23/11/11
f 50/21/21 26/1/1 33/12/12
f 41/22/22 50/21/21 52/23/23
f 41/22/22 52/23/23 42/24/24
f 42/24/24 52/23/23 44/25/25
f 22/26/26 42/24/24 44/25/25
f 37/27/27 36/28/28 43/29/29
f 36/28/28 22/26/26 44/25/25
f 12/30/30 37/27/27 43/29/29
f 39/16/16 13/31/31 48/19/19
f 39/16/16 28/15/15 13/31/31
f 48/19/19 13/31/31 45/32/32
f 48/19/19 38/18/18 39/16/16
f 47/33/33 48/19/19 45/32/32
f 51/20/20 46/34/34 49/35/35
f 50/21/21 51/20/20 49/35/35
f 52/23/23 50/21/21 49/35/35
f 76/36/36 77/37/37 60/38/38 59/39/39
f 68/40/40 55/41/41 61/42/42
f 44/25/25 54/43/43 55/41/41
f 43/29/29 53/44/44 12/30/30
f 43/29/29 44/25/25 55/41/41
f 13/31/31 71/45/45 2/46/46
f 28/15/15 11/47/47 71/45/45
f 28/15/15 71/45/45 13/31/31
f 45/32/32 2/46/46 20/48/48
f 75/49/49 45/32/32 57/50/50
f 57/50/50 45/32/32 20/48/48
f 13/31/31 2/46/46 45/32/32
f 49/35/35 46/34/34 58/51/51
f 49/35/35 58/51/51 59/39/39
f 21/52/52 59/39/39 60/38/38
f 63/53/53 65/54/54 60/38/38
f 65/54/54 61/42/42 60/38/38
f 62/55/55 65/54/54 63/53/53
f 64/56/56 68/40/40 65/54/54
f 68/40/40 61/42/42 65/54/54
f 67/57/57 68/40/40 66/58/58
f 12/30/30 68/40/40 67/57/57
f 72/59/59 20/48/48 123/60/60
f 20/48/48 71/45/45 123/60/60
f 71/45/45 11/47/47 123/60/60
f 2/46/46 71/45/45 20/48/48
f 57/50/50 72/59/59 73/61/61
f 57/50/50 20/48/48 72/59/59
f 75/49/49 73/61/61 81/62/62
f 75/49/49 57/50/50 73/61/61
f 58/51/51 75/49/49 59/39/39
f 63/53/53 10/63/63 9/64/64
f 66/58/58 64/56/56 62/55/55
f 67/57/57 66/58/58 18/65/65
f 70/66/66 69/67/67 86/68/68
f 78/69/69 72/59/59 19/70/70
f 80/71/71 79/72/72 92/73/73
f 81/62/62 73/61/61 79/72/72
f 74/74/74 81/62/62 76/36/36
f 85/75/75 76/36/36 82/76/76
f 9/64/64 10/63/63 84/77/77
f 10/63/63 77/37/37 85/75/75
f 18/65/65 84/77/77 97/78/78
f 18/65/65 97/78/78 8/79/79
f 66/58/58 84/77/77 18/65/65
f 86/68/68 88/80/80 89/81/81
f 70/66/66 89/81/81 90/82/82
f 19/70/70 7/83/83 91/84/84
f 92/73/73 79/72/72 6/85/85
f 95/86/86 80/71/71 92/73/73
f 94/87/87 82/76/76 104/88/88
f 97/78/78 96/89/89 5/90/90
f 96/89/89 83/91/91 94/87/87
f 98/92/92 5/90/90 107/93/93
f 17/94/94 8/79/79 98/92/92
f 101/95/95 87/96/96 100/97/97
f 7/83/83 113/98/98 102/99/99
f 91/84/84 102/99/99 6/85/85
f 93/100/100 103/101/101 4/102/102
f 93/100/100 92/73/73 103/101/101
f 95/86/86 93/100/100 4/102/102
f 106/103/103 96/89/89 1/104/104
f 5/90/90 96/89/89 107/93/93
f 109/105/105 105/106/106 122/107/107
f 105/106/106 107/93/93 106/103/103
f 99/108/108 17/94/94 107/93/93
f 115/109/109 102/99/99 113/98/98
f 103/101/101 114/110/110 3/111/111
f 117/112/112 103/101/101 3/111/111
f 122/107/107 118/113/113 120/114/114
f 108/115/115 122/107/107 121/116/116
f 109/105/105 122/107/107 108/115/115
f 111/117/117 121/116/116 110/118/118
f 112/119/119 100/97/97 99/108/108
f 70/66/66 86/68/68 89/81/81
f 16/3/3 27/2/2 30/7/7
f 27/2/2 25/9/9 30/7/7
f 26/1/1 15/14/14 27/2/2
f 34/13/13 41/22/22 15/14/14
f 31/8/8 29/4/4 14/6/6
f 32/10/10 30/7/7 31/8/8
f 33/12/12 16/3/3 32/10/10
f 41/22/22 34/13/13 50/21/21
f 50/21/21 34/13/13 26/1/1
f 35/120/120 41/22/22 22/26/26
f 36/28/28 35/120/120 22/26/26
f 39/16/16 40/17/17 14/6/6
f 38/18/18 23/11/11 40/17/17
f 38/18/18 40/17/17 39/16/16
f 40/17/17 23/11/11 31/8/8
f 51/20/20 23/11/11 48/19/19
f 51/20/20 50/21/21 33/12/12
f 22/26/26 41/22/22 42/24/24
f 43/29/29 36/28/28 44/25/25
f 28/15/15 24/5/5 11/47/47
f 51/20/20 47/33/33 46/34/34
f 51/20/20 48/19/19 47/33/33
f 21/52/52 52/23/23 49/35/35
f 54/43/43 52/23/23 61/42/42
f 61/42/42 52/23/23 21/52/52
f 53/44/44 55/41/41 68/40/40
f 61/42/42 55/41/41 54/43/43
f 44/25/25 52/23/23 54/43/43
f 12/30/30 53/44/44 68/40/40
f 43/29/29 55/41/41 53/44/44
f 56/121/121 37/27/27 12/30/30
f 58/51/51 45/32/32 75/49/49
f 58/51/51 47/33/33 45/32/32
f 58/51/51 46/34/34 47/33/33
f 21/52/52 49/35/35 59/39/39
f 61/42/42 21/52/52 60/38/38
f 62/55/55 64/56/56 65/54/54
f 66/58/58 68/40/40 64/56/56
f 69/67/67 12/30/30 67/57/57
f 86/68/68 69/67/67 67/57/57
f 56/121/121 12/30/30 69/67/67
f 70/66/66 56/121/121 69/67/67
f 73/61/61 72/59/59 78/69/69
f 74/74/74 75/49/49 81/62/62
f 59/39/39 75/49/49 74/74/74
f 76/36/36 59/39/39 74/74/74
f 85/75/75 82/76/76 83/91/91 10/63/63
f 10/63/63 63/53/53 77/37/37
f 63/53/53 60/38/38 77/37/37
f 66/58/58 9/64/64 84/77/77
f 66/58/58 62/55/55 9/64/64
f 62/55/55 63/53/53 9/64/64
f 86/68/68 18/65/65 88/80/80
f 86/68/68 67/57/57 18/65/65
f 7/83/83 19/70/70 123/60/60
f 19/70/70 72/59/59 123/60/60
f 79/72/72 78/69/69 19/70/70
f 79/72/72 73/61/61 78/69/69
f 81/62/62 79/72/72 80/71/71
f 76/36/36 81/62/62 80/71/71
f 80/71/71 82/76/76 76/36/36
f 95/86/86 82/76/76 80/71/71
f 85/75/75 77/37/37 76/36/36
f 84/77/77 10/63/63 83/91/91
f 87/96/96 88/80/80 8/79/79
f 88/80/80 18/65/65 8/79/79
f 89/81/81 88/80/80 87/96/96
f 90/82/82 89/81/81 87/96/96
f 91/84/84 79/72/72 19/70/70
f 6/85/85 79/72/72 91/84/84
f 95/86/86 92/73/73 93/100/100
f 104/88/88 82/76/76 95/86/86
f 94/87/87 83/91/91 82/76/76
f 97/78/78 83/91/91 96/89/89
f 84/77/77 83/91/91 97/78/78
f 98/92/92 97/78/78 5/90/90
f 107/93/93 17/94/94 98/92/92
f 8/79/79 97/78/78 98/92/92
f 99/108/108 8/79/79 17/94/94
f 99/108/108 100/97/97 8/79/79
f 100/97/97 87/96/96 8/79/79
f 90/82/82 87/96/96 101/95/95
f 102/99/99 91/84/84 7/83/83
f 6/85/85 102/99/99 103/101/101
f 103/101/101 92/73/73 6/85/85
f 4/102/102 103/101/101 117/112/112
f 95/86/86 4/102/102 104/88/88
f 1/104/104 94/87/87 104/88/88
f 1/104/104 96/89/89 94/87/87
f 107/93/93 96/89/89 106/103/103
f 109/105/105 107/93/93 105/106/106
f 111/117/117 99/108/108 108/115/115
f 108/115/115 99/108/108 109/105/105
f 109/105/105 99/108/108 107/93/93
f 111/117/117 112/119/119 99/108/108
f 110/118/118 101/95/95 112/119/119
f 112/119/119 101/95/95 100/97/97
f 114/110/110 115/109/109 113/98/98
f 103/101/101 115/109/109 114/110/110
f 103/101/101 102/99/99 115/109/109
f 116/122/122 117/112/112 3/111/111
f 104/88/88 4/102/102 116/122/122
f 4/102/102 117/112/112 116/122/122
f 118/113/113 119/123/123 1/104/104
f 122/107/107 105/106/106 118/113/113
f 118/113/113 105/106/106 119/123/123
f 119/123/123 105/106/106 106/103/103
f 119/123/123 106/103/103 1/104/104
f 121/116/116 122/107/107 120/114/114
f 111/117/117 108/115/115 121/116/116
f 110/118/118 112/119/119 111/117/117
f 110/118/118 121/116/116 120/114/114
f 7/83/83 123/60/60 11/47/47
