# Blender v3.0.0 OBJ File: 'FBX_to_OBJ.blend'
# www.blender.org
mtllib SM_tree1.mtl
o rpgpp_lt_tree_01_rpgpp_lt_tree_01.001
v 0.000000 0.000000 -0.385348
v -0.341473 0.000000 -0.188198
v -0.341473 0.000000 0.206100
v 0.341473 0.000000 0.206100
v 0.341473 0.000000 -0.188198
v -0.262314 0.917126 -0.098093
v -0.058383 0.917126 -0.215832
v -0.262314 0.917126 0.137386
v 0.145547 0.917127 0.137386
v 0.145547 0.917127 -0.098092
v -0.472420 2.027182 -0.094898
v -0.279377 2.039792 -0.206589
v -0.472421 2.027182 0.128485
v -0.086334 2.052403 0.128485
v -0.086334 2.052403 -0.094898
v -0.355213 3.048024 -0.340135
v -0.163701 3.017978 -0.451130
v -0.355213 3.053441 -0.116818
v 0.027812 2.998764 -0.115492
v 0.027812 2.993348 -0.338809
v 0.000000 -0.000000 0.403250
v -0.058383 0.917127 0.255126
v -0.279377 2.039793 0.240176
v -0.163701 3.028811 -0.004496
v -1.020711 3.330375 -1.036255
v -0.621485 3.719453 -1.421813
v -0.158340 6.646399 -0.902756
v -0.810793 5.709686 -1.432876
v 0.580542 3.143810 -0.423782
v -0.867039 2.855621 0.237790
v 0.831707 5.887333 -0.549332
v -0.855961 5.202044 1.001614
v -1.511124 5.362244 0.125075
v -0.399083 4.083073 0.847650
v -1.619590 4.885306 -1.071781
v -0.757099 2.721564 -0.272607
v 0.996412 4.279025 -0.534377
v 0.042820 7.222881 -0.536305
v -1.642132 5.619002 -0.385460
v -0.159497 5.740541 0.456236
v -0.632751 7.270416 -0.256026
v 0.097271 2.855290 -0.068424
v 1.033339 4.580311 -0.423349
v -1.145644 4.679514 0.946353
v 0.573671 5.845138 -1.488224
v -1.435855 3.545522 0.367999
v -0.956389 4.268143 -1.472333
v 0.505860 6.334078 -0.264142
v -1.324467 5.653636 -0.974557
v 0.679868 4.156196 0.581154
v 0.463398 6.389795 -0.977836
v -1.913998 4.217237 -0.350800
v 0.446576 4.830134 0.349987
v -0.885653 3.574319 -1.314722
v -0.499678 7.027831 -0.633683
v 0.495066 5.029026 -0.222432
v 0.253818 3.180704 -1.003403
v -1.234427 5.922123 -0.196472
v -0.603895 3.114995 0.664525
v 0.740542 4.504664 -1.075230
v -0.820132 6.499305 0.174826
v -0.264076 4.540493 -1.557186
v 0.603624 3.384157 0.571970
v -0.101251 7.223415 -0.032663
v -1.609022 4.322265 0.146625
v -0.308497 2.930692 -0.953833
v 1.249019 5.560015 -0.745720
v -1.757835 4.279398 -0.920151
v -0.216086 5.312027 0.813269
v 0.812500 5.311807 -1.415751
v -1.520320 3.724223 -0.015951
v -0.437553 6.237651 0.315780
v -0.062599 5.180160 -1.790841
v -1.252648 5.935454 -0.598370
v -0.216157 3.424026 -1.330560
v 0.476720 5.771669 0.154714
v -0.639017 6.309820 -0.880136
v -1.299884 5.571753 0.454953
v -0.626417 3.578705 0.915022
v 0.650635 5.353015 -0.525257
v -1.253038 5.315623 -1.284957
v -0.112621 3.431537 0.884153
v 0.620730 6.586433 -0.594613
v -0.906291 5.247427 -1.624626
v -1.331585 3.287160 -0.053506
v 0.641327 3.255476 0.008527
v -0.771326 6.684963 -0.242778
v -1.170098 3.467908 0.644894
v 0.108691 2.935173 -0.879427
v 0.504254 3.842089 0.811742
v -0.206621 7.146216 -0.665765
v -0.827617 2.825592 -0.593856
v 1.092860 5.117956 -1.048077
v -1.823207 5.160356 -0.202045
v -0.251876 2.906422 0.249735
v 1.106444 5.048990 -0.635424
v -0.853185 5.853881 -1.104857
v -0.682206 2.777620 0.043301
v -1.453071 4.579424 0.509684
v -0.284277 5.910210 -1.627354
v 0.413870 3.439214 0.796508
v -1.752573 5.190845 -0.591407
v -0.494720 5.289335 -1.811760
v -1.423727 3.462919 -0.651169
v 0.516429 3.126424 -0.775250
v -0.723568 5.679465 0.795000
v -1.692651 3.761966 -0.636525
v 0.076104 4.729140 0.788157
v 0.353322 4.386997 -1.214043
v 0.810047 6.168986 -0.674882
v -0.274100 4.570704 0.941094
v 0.753958 3.914881 -0.738316
v 0.478848 5.801795 -0.223337
v -0.037307 3.779849 0.941039
v -0.139503 6.237850 -1.176772
v 1.045422 4.556738 -0.812736
v 0.186763 4.329754 0.865229
v -0.265027 4.031404 -1.405096
v 0.393620 2.940417 0.276772
v -0.774536 4.857836 -1.696214
v 0.256962 5.645846 0.528293
v 0.951915 5.607807 -1.073779
v -0.853423 6.390934 -0.597434
v 0.508148 5.348442 -1.627139
v -0.087735 7.444212 -0.291448
v 1.111717 5.500712 -0.617061
v -0.411308 7.362973 -0.135500
vt 0.656751 0.795061
vt 0.656751 0.795061
vt 0.656751 0.795061
vt 0.656751 0.795061
vt 0.656751 0.795061
vt 0.656751 0.795061
vt 0.656751 0.795061
vt 0.656751 0.795061
vt 0.656751 0.795061
vt 0.656751 0.795061
vt 0.656751 0.795061
vt 0.656751 0.795061
vt 0.656751 0.795061
vt 0.656751 0.795061
vt 0.656751 0.795061
vt 0.656751 0.795061
vt 0.656751 0.795061
vt 0.656751 0.795061
vt 0.656751 0.795061
vt 0.656751 0.795061
vt 0.656751 0.795061
vt 0.656751 0.795061
vt 0.656751 0.795061
vt 0.656751 0.795061
vt 0.140587 0.786273
vt 0.140587 0.786273
vt 0.140587 0.786273
vt 0.140587 0.786273
vt 0.140587 0.786273
vt 0.140587 0.786273
vt 0.140587 0.786273
vt 0.140587 0.786273
vt 0.140587 0.786273
vt 0.140587 0.786273
vt 0.140587 0.786273
vt 0.140587 0.786273
vt 0.140587 0.786273
vt 0.140587 0.786273
vt 0.140587 0.786273
vt 0.140587 0.786273
vt 0.140587 0.786273
vt 0.140587 0.786273
vt 0.140587 0.786273
vt 0.140587 0.786273
vt 0.140587 0.786273
vt 0.140587 0.786273
vt 0.140587 0.786273
vt 0.140587 0.786273
vt 0.140587 0.786273
vt 0.140587 0.786273
vt 0.140587 0.786273
vt 0.140587 0.786273
vt 0.140587 0.786273
vt 0.140587 0.786273
vt 0.140587 0.786273
vt 0.140587 0.786273
vt 0.140587 0.786273
vt 0.140587 0.786273
vt 0.140587 0.786273
vt 0.140587 0.786273
vt 0.140587 0.786273
vt 0.140587 0.786273
vt 0.140587 0.786273
vt 0.140587 0.786273
vt 0.140587 0.786273
vt 0.140587 0.786273
vt 0.140587 0.786273
vt 0.140587 0.786273
vt 0.140587 0.786273
vt 0.140587 0.786273
vt 0.140587 0.786273
vt 0.140587 0.786273
vt 0.140587 0.786273
vt 0.140587 0.786273
vt 0.140587 0.786273
vt 0.140587 0.786273
vt 0.140587 0.786273
vt 0.140587 0.786273
vt 0.140587 0.786273
vt 0.140587 0.786273
vt 0.140587 0.786273
vt 0.140587 0.786273
vt 0.140587 0.786273
vt 0.140587 0.786273
vt 0.140587 0.786273
vt 0.140587 0.786273
vt 0.140587 0.786273
vt 0.140587 0.786273
vt 0.140587 0.786273
vt 0.140587 0.786273
vt 0.140587 0.786273
vt 0.140587 0.786273
vt 0.140587 0.786273
vt 0.140587 0.786273
vt 0.140587 0.786273
vt 0.140587 0.786273
vt 0.140587 0.786273
vt 0.140587 0.786273
vt 0.140587 0.786273
vt 0.140587 0.786273
vt 0.140587 0.786273
vt 0.140587 0.786273
vt 0.140587 0.786273
vt 0.140587 0.786273
vt 0.140587 0.786273
vt 0.140587 0.786273
vt 0.140587 0.786273
vt 0.140587 0.786273
vt 0.140587 0.786273
vt 0.140587 0.786273
vt 0.140587 0.786273
vt 0.140587 0.786273
vt 0.140587 0.786273
vt 0.140587 0.786273
vt 0.140587 0.786273
vt 0.140587 0.786273
vt 0.140587 0.786273
vt 0.140587 0.786273
vt 0.140587 0.786273
vt 0.140587 0.786273
vt 0.140587 0.786273
vt 0.140587 0.786273
vt 0.140587 0.786273
vt 0.140587 0.786273
vt 0.140587 0.786273
vt 0.140587 0.786273
vt 0.140587 0.786273
vn 0.8520 0.2002 0.4837
vn 0.8527 0.2023 -0.4816
vn 0.8709 -0.0281 -0.4907
vn 0.8305 0.1131 0.5454
vn -0.8531 0.1234 -0.5069
vn -0.8573 0.1116 0.5025
vn -0.8586 -0.0225 0.5121
vn -0.8608 -0.0182 -0.5086
vn 0.8461 0.2281 -0.4817
vn 0.0180 0.1828 -0.9830
vn 0.0185 0.1030 -0.9945
vn 0.0183 0.1606 0.9869
vn 0.8510 0.2176 0.4780
vn 0.0185 0.0936 0.9954
vn -0.0535 -0.1234 -0.9909
vn -0.0209 -0.2407 -0.9704
vn 0.8108 -0.2342 -0.5364
vn -0.8622 0.0258 0.5058
vn -0.8904 -0.0787 -0.4484
vn -0.0450 0.1208 0.9917
vn 0.8945 0.0052 0.4470
vn 0.0042 0.2392 0.9710
vn -0.8390 -0.0363 -0.5429
vn -0.8787 0.2056 0.4308
vn 0.8817 -0.3161 -0.3503
vn 0.6943 -0.5762 -0.4312
vn 0.6093 -0.3496 -0.7117
vn -0.7759 -0.6235 0.0959
vn -0.3077 -0.9514 0.0160
vn -0.1700 -0.9506 0.2596
vn 0.4758 0.4744 -0.7407
vn 0.4363 -0.0437 -0.8987
vn 0.1993 -0.1165 -0.9730
vn -0.1548 0.5971 -0.7871
vn 0.9256 0.1583 0.3439
vn 0.8165 0.2890 0.4998
vn 0.8590 0.2675 0.4365
vn 0.9127 -0.0329 0.4072
vn 0.5227 0.3093 0.7944
vn 0.4835 0.2265 0.8455
vn 0.3382 -0.2111 -0.9171
vn 0.4423 -0.2961 -0.8466
vn 0.4018 -0.4216 -0.8129
vn 0.1376 -0.3859 -0.9122
vn 0.3111 0.3093 0.8986
vn 0.2386 -0.3070 -0.9213
vn -0.1601 -0.2329 0.9592
vn 0.0705 -0.4206 0.9045
vn 0.1059 -0.0076 0.9943
vn -0.0732 -0.0618 0.9954
vn -0.7242 0.4207 0.5464
vn -0.5096 -0.0007 0.8604
vn -0.1998 0.2426 0.9493
vn -0.4458 0.5032 -0.7403
vn -0.4922 0.6485 -0.5806
vn -0.6873 0.5302 -0.4965
vn -0.7295 0.5560 -0.3984
vn 0.8311 0.5516 -0.0712
vn 0.2942 0.9554 0.0267
vn 0.3569 0.5086 0.7835
vn 0.8054 0.2847 0.5199
vn 0.4566 0.5957 -0.6607
vn -0.0406 0.6558 -0.7539
vn 0.4831 0.7094 -0.5132
vn 0.8092 -0.3891 0.4403
vn 0.9011 -0.4314 0.0447
vn 0.9381 0.0943 0.3333
vn 0.1210 0.0246 0.9923
vn -0.8314 0.3368 0.4419
vn -0.8484 0.0323 0.5284
vn 0.3505 0.2117 0.9123
vn 0.7939 0.1678 0.5844
vn -0.4633 -0.2296 -0.8559
vn -0.0956 -0.3418 -0.9349
vn -0.4022 -0.4691 -0.7862
vn 0.9521 -0.2911 -0.0940
vn -0.0209 0.4380 0.8987
vn -0.0509 0.5135 0.8566
vn 0.1466 0.4808 0.8645
vn -0.7854 0.6038 0.1363
vn -0.6236 0.5417 0.5636
vn 0.2043 -0.9787 0.0205
vn 0.1051 -0.8985 0.4263
vn -0.5555 0.5045 -0.6610
vn -0.1620 0.4662 -0.8697
vn -0.5111 0.5843 -0.6304
vn -0.1351 0.6815 -0.7192
vn -0.9085 -0.3816 0.1702
vn -0.8586 -0.4540 -0.2379
vn -0.7503 -0.6137 -0.2457
vn 0.4473 -0.8343 0.3223
vn 0.8131 -0.5718 -0.1092
vn 0.8065 -0.0051 0.5912
vn 0.5619 -0.0231 0.8269
vn -0.8229 -0.1355 -0.5518
vn -0.7777 0.1247 -0.6161
vn -0.3146 -0.1534 -0.9368
vn 0.6841 -0.0557 -0.7273
vn 0.7476 0.3586 -0.5591
vn 0.8418 -0.1334 -0.5231
vn -0.8561 -0.3675 0.3634
vn -0.0996 -0.7009 0.7063
vn -0.4100 -0.8689 0.2772
vn -0.6731 0.3280 -0.6629
vn -0.5792 0.1588 -0.7996
vn -0.4076 -0.8329 -0.3743
vn -0.9759 -0.1708 0.1360
vn -0.9467 0.2370 0.2180
vn -0.9057 0.2841 -0.3146
vn 0.3877 -0.4319 0.8144
vn -0.8900 -0.0984 0.4452
vn -0.4803 -0.6027 -0.6372
vn -0.8144 0.5797 0.0252
vn 0.8927 -0.2942 -0.3414
vn -0.7372 0.6744 -0.0418
vn -0.9169 0.3813 -0.1181
vn -0.5562 -0.4122 0.7216
vn 0.6006 0.0640 0.7970
vn 0.5374 0.0428 0.8422
vn 0.6369 0.1472 0.7568
vn 0.2924 -0.8407 -0.4557
vn 0.0067 -0.8133 -0.5817
vn -0.2788 0.8220 0.4966
vn -0.1712 0.0951 -0.9806
vn -0.7340 0.6549 -0.1799
vn 0.8825 0.4694 0.0294
vn 0.9599 0.2664 0.0875
usemtl rpgpp_lt_mat_a.030
s 1
f 9/1/1 10/2/2 15/3/3 14/4/4
f 2/5/5 3/6/6 8/7/7 6/8/8
f 5/9/9 1/10/10 7/11/11 10/2/2
f 21/12/12 4/13/13 9/1/1 22/14/14
f 1/10/10 2/5/5 6/8/8 7/11/11
f 4/13/13 5/9/9 10/2/2 9/1/1
f 15/3/3 12/15/15 17/16/16 20/17/17
f 6/8/8 8/7/7 13/18/18 11/19/19
f 10/2/2 7/11/11 12/15/15 15/3/3
f 22/14/14 9/1/1 14/4/4 23/20/20
f 7/11/11 6/8/8 11/19/19 12/15/15
f 23/20/20 14/4/4 19/21/21 24/22/22
f 12/15/15 11/19/19 16/23/23 17/16/16
f 14/4/4 15/3/3 20/17/17 19/21/21
f 11/19/19 13/18/18 18/24/24 16/23/23
f 13/18/18 23/20/20 24/22/22 18/24/24
f 8/7/7 22/14/14 23/20/20 13/18/18
f 3/6/6 21/12/12 22/14/14 8/7/7
f 112/25/25 105/26/26 60/27/27
f 85/28/28 36/29/29 98/30/30
f 45/31/31 124/32/32 73/33/33 100/34/34
f 76/35/35 53/36/36 56/37/37 113/38/38
f 121/39/39 108/40/40 53/36/36
f 118/41/41 109/42/42 57/43/43 75/44/44
f 121/39/39 69/45/45 108/40/40
f 109/42/42 118/41/41 62/46/46
f 79/47/47 82/48/48 114/49/49 34/50/50
f 78/51/51 44/52/52 32/53/53
f 77/54/54 97/55/55 49/56/56 123/57/57
f 83/58/58 125/59/59 64/60/60 48/61/61
f 51/62/62 91/63/63 38/64/64 83/58/58
f 63/65/65 86/66/66 43/67/67
f 69/45/45 32/53/53 111/68/68 108/40/40
f 78/51/51 33/69/69 99/70/70 44/52/52
f 108/40/40 117/71/71 50/72/72 53/36/36
f 47/73/73 26/74/74 54/75/75
f 43/67/67 86/66/66 37/76/76
f 72/77/77 106/78/78 69/45/45 40/79/79
f 58/80/80 33/69/69 61/81/81
f 42/82/82 95/83/83 98/30/30 36/29/29
f 62/46/46 73/33/33 124/32/32 109/42/42
f 55/84/84 27/85/85 77/54/54 123/57/57
f 28/86/86 97/55/55 115/87/87 100/34/34
f 71/88/88 107/89/89 104/90/90 85/28/28
f 64/60/60 72/77/77 40/79/79
f 119/91/91 105/26/26 29/92/92
f 63/65/65 119/91/91 86/66/66
f 37/76/76 96/93/93 43/67/67
f 50/72/72 117/71/71 114/49/49 90/94/94
f 47/73/73 68/95/95 35/96/96 120/97/97
f 70/98/98 122/99/99 93/100/100
f 109/42/42 124/32/32 70/98/98 60/27/27
f 44/52/52 99/70/70 46/101/101
f 98/30/30 95/83/83 59/102/102 30/103/103
f 81/104/104 28/86/86 84/105/105
f 104/90/90 92/106/106 36/29/29 85/28/28
f 76/35/35 64/60/60 121/39/39
f 121/39/39 53/36/36 76/35/35
f 52/107/107 94/108/108 102/109/109 68/95/95
f 35/96/96 81/104/104 120/97/97
f 57/43/43 109/42/42 60/27/27 105/26/26
f 82/48/48 95/83/83 119/91/91 101/110/110
f 68/95/95 107/89/89 52/107/107
f 65/111/111 71/88/88 46/101/101
f 29/92/92 112/25/25 37/76/76 86/66/66
f 92/106/106 25/112/112 54/75/75
f 39/113/113 94/108/108 33/69/69 58/80/80
f 27/85/85 91/63/63 51/62/62
f 34/50/50 114/49/49 117/71/71 111/68/68
f 116/114/114 60/27/27 70/98/98 93/100/100
f 52/107/107 107/89/89 71/88/88 65/111/111
f 41/115/115 55/84/84 87/116/116
f 32/53/53 44/52/52 111/68/68
f 88/117/117 30/103/103 59/102/102
f 80/118/118 126/119/119 31/120/120 113/38/38
f 57/43/43 89/121/121 66/122/122 75/44/44
f 43/67/67 56/37/37 53/36/36 50/72/72
f 61/81/81 41/115/115 87/116/116
f 127/123/123 41/115/115 61/81/81
f 62/46/46 26/74/74 120/97/97
f 103/124/124 100/34/34 73/33/33
f 50/72/72 63/65/65 43/67/67
f 84/105/105 28/86/86 100/34/34 103/124/124
f 127/123/123 125/59/59 41/115/115
f 94/108/108 52/107/107 65/111/111
f 26/74/74 66/122/122 92/106/106 54/75/75
f 72/77/77 64/60/60 127/123/123 61/81/81
f 105/26/26 119/91/91 89/121/121
f 91/63/63 55/84/84 41/115/115 125/59/59
f 102/109/109 35/96/96 68/95/95
f 72/77/77 61/81/81 78/51/51 106/78/78
f 65/111/111 99/70/70 33/69/69 94/108/108
f 36/29/29 66/122/122 89/121/121 42/82/82
f 54/75/75 107/89/89 68/95/95 47/73/73
f 39/113/113 58/80/80 74/125/125
f 87/116/116 55/84/84 123/57/57
f 75/44/44 66/122/122 26/74/74
f 64/60/60 76/35/35 48/61/61
f 120/97/97 103/124/124 73/33/33 62/46/46
f 78/51/51 61/81/81 33/69/69
f 79/47/47 88/117/117 59/102/102
f 95/83/83 82/48/48 59/102/102
f 80/118/118 113/38/38 56/37/37
f 79/47/47 59/102/102 82/48/48
f 58/80/80 61/81/81 87/116/116 123/57/57
f 31/120/120 83/58/58 48/61/61
f 110/126/126 31/120/120 67/127/127
f 84/105/105 120/97/97 81/104/104
f 51/62/62 45/31/31 100/34/34 115/87/87
f 46/101/101 71/88/88 85/28/28
f 124/32/32 45/31/31 122/99/99 70/98/98
f 86/66/66 119/91/91 29/92/92
f 49/56/56 102/109/109 39/113/113 74/125/125
f 90/94/94 63/65/65 50/72/72
f 91/63/63 27/85/85 55/84/84
f 36/29/29 92/106/106 66/122/122
f 67/127/127 116/114/114 93/100/100
f 114/49/49 82/48/48 101/110/110 90/94/94
f 30/103/103 85/28/28 98/30/30
f 67/127/127 96/93/93 116/114/114
f 31/120/120 126/119/119 67/127/127
f 115/87/87 97/55/55 77/54/54
f 99/70/70 65/111/111 46/101/101
f 49/56/56 97/55/55 28/86/86 81/104/104
f 63/65/65 101/110/110 119/91/91
f 101/110/110 63/65/65 90/94/94
f 102/109/109 94/108/108 39/113/113
f 103/124/124 120/97/97 84/105/105
f 104/90/90 25/112/112 92/106/106
f 25/112/112 107/89/89 54/75/75
f 105/26/26 89/121/121 57/43/43
f 30/103/103 88/117/117 46/101/101 85/28/28
f 78/51/51 32/53/53 106/78/78
f 107/89/89 25/112/112 104/90/90
f 81/104/104 35/96/96 102/109/109 49/56/56
f 80/118/118 56/37/37 43/67/67 96/93/93
f 51/62/62 83/58/58 110/126/126
f 31/120/120 110/126/126 83/58/58
f 108/40/40 111/68/68 117/71/71
f 105/26/26 112/25/25 29/92/92
f 31/120/120 48/61/61 113/38/38
f 113/38/38 48/61/61 76/35/35
f 77/54/54 27/85/85 115/87/87
f 27/85/85 51/62/62 115/87/87
f 37/76/76 116/114/114 96/93/93
f 116/114/114 37/76/76 112/25/25 60/27/27
f 62/46/46 118/41/41 26/74/74
f 26/74/74 118/41/41 75/44/44
f 42/82/82 89/121/121 119/91/91
f 95/83/83 42/82/82 119/91/91
f 120/97/97 26/74/74 47/73/73
f 121/39/39 64/60/60 40/79/79
f 121/39/39 40/79/79 69/45/45
f 122/99/99 110/126/126 67/127/127
f 122/99/99 67/127/127 93/100/100
f 49/56/56 74/125/125 123/57/57
f 123/57/57 74/125/125 58/80/80
f 106/78/78 32/53/53 69/45/45
f 91/63/63 125/59/59 38/64/64
f 83/58/58 38/64/64 125/59/59
f 80/118/118 96/93/93 126/119/119
f 96/93/93 67/127/127 126/119/119
f 127/123/123 64/60/60 125/59/59
f 122/99/99 45/31/31 51/62/62 110/126/126
f 44/52/52 88/117/117 79/47/47 34/50/50
f 44/52/52 34/50/50 111/68/68
f 46/101/101 88/117/117 44/52/52
