# Blender v3.0.0 OBJ File: 'FBX_to_OBJ.blend'
# www.blender.org
mtllib SM_terrain_path_1.mtl
o rpgpp_lt_terrain_path_01a_rpgpp_lt_terrain_path_01a.001
v 1.278683 -0.060836 1.454111
v -2.112651 -0.060836 1.495303
v -0.619174 0.028218 0.530916
v 2.307422 0.085367 -0.443311
v -2.522300 0.061797 -0.310979
v -4.804623 -0.060835 -1.372365
v 3.201904 -0.060835 -1.511522
v 3.405178 0.045206 -0.866006
v -2.225970 -0.060835 -1.593157
v -0.672493 -0.060835 -1.697839
v 0.101911 -0.060835 -1.544006
v 1.348367 -0.060835 -1.664526
v -3.131877 -0.060835 -1.673032
v -1.503990 0.026078 -0.670863
v -1.279911 0.042274 -0.279775
v 1.088024 0.005648 -0.113006
v -0.485229 0.050286 -0.587946
v 1.882230 0.061657 -0.215774
v 2.138505 -0.060835 -1.394460
v 2.637717 0.080264 -0.628284
v 4.580904 -0.060835 -1.380442
v -3.630806 0.057643 0.159191
v -2.073034 0.085391 0.475196
v 0.438145 -0.060836 1.328081
v 2.681874 0.080124 0.729163
v 2.290832 0.049530 0.609556
v 3.436488 -0.049783 -0.268852
v 4.137218 0.023407 0.694236
v 3.859118 -0.045905 0.062562
v 4.666772 -0.060836 1.494171
v 4.214873 -0.023549 1.173811
v 4.872528 -0.060835 0.398787
v -4.620080 -0.060836 1.387395
v -2.722778 -0.060836 1.656330
v -3.264830 0.031754 1.107436
v -0.770983 -0.060836 1.570995
v -1.148354 -0.060255 0.798868
v 2.831899 -0.060836 1.650724
v 2.369576 0.007851 1.297689
v 3.332985 -0.060836 1.719025
v 3.746731 0.028574 1.332500
v 3.058002 0.035936 0.893015
v 4.319552 0.035120 -0.142318
v 4.935083 -0.060835 -0.252433
v 4.312068 -0.014341 -0.579732
v 4.592071 -0.060835 -0.808506
v 4.004405 -0.025818 -0.888688
v 0.407307 0.112844 0.000832
v -4.916169 -0.060835 0.588590
v -4.684338 -0.060835 -0.396547
v 1.354463 -0.360836 2.009632
v -2.276937 -0.360836 2.138830
v -5.215585 -0.360835 -1.791271
v 3.384639 -0.360834 -1.983917
v -2.070839 -0.360834 -1.987374
v -0.104170 -0.360834 -2.103711
v 1.570501 -0.360834 -2.036217
v -3.393357 -0.360834 -2.045404
v 2.376935 -0.360835 -1.829252
v 5.046040 -0.360835 -1.729403
v 0.384103 -0.360836 1.887635
v 5.123136 -0.360836 1.798766
v 5.439208 -0.360835 0.516909
v -5.063203 -0.360836 1.824631
v -0.718424 -0.360836 2.051158
v 3.063240 -0.360836 2.250213
v 5.459842 -0.360835 -0.779388
v -5.414266 -0.360835 0.693662
v -5.257738 -0.360835 -0.455009
vt 0.825193 0.214688
vt 0.825193 0.214688
vt 0.825193 0.214688
vt 0.825193 0.214688
vt 0.825193 0.214688
vt 0.825193 0.214688
vt 0.825193 0.214688
vt 0.825193 0.214688
vt 0.825193 0.214688
vt 0.825193 0.214688
vt 0.825193 0.214688
vt 0.825193 0.214688
vt 0.825193 0.214688
vt 0.825193 0.214688
vt 0.825193 0.214688
vt 0.825193 0.214688
vt 0.825193 0.214688
vt 0.825193 0.214688
vt 0.825193 0.214688
vt 0.825193 0.214688
vt 0.825193 0.214688
vt 0.825193 0.214688
vt 0.825193 0.214688
vt 0.825193 0.214688
vt 0.825193 0.214688
vt 0.825193 0.214688
vt 0.825193 0.214688
vt 0.825193 0.214688
vt 0.825193 0.214688
vt 0.825193 0.214688
vt 0.825193 0.214688
vt 0.825193 0.214688
vt 0.825193 0.214688
vt 0.825193 0.214688
vt 0.825193 0.214688
vt 0.825193 0.214688
vt 0.825193 0.214688
vt 0.825193 0.214688
vt 0.825193 0.214688
vt 0.825193 0.214688
vt 0.825193 0.214688
vt 0.825193 0.214688
vt 0.825193 0.214688
vt 0.825193 0.214688
vt 0.825193 0.214688
vt 0.825193 0.214688
vt 0.825193 0.214688
vt 0.825193 0.214688
vt 0.825193 0.214688
vt 0.825193 0.214688
vt 0.825193 0.214688
vt 0.825193 0.214688
vt 0.825193 0.214688
vt 0.825193 0.214688
vt 0.825193 0.214688
vt 0.825193 0.214688
vt 0.825193 0.214688
vt 0.825193 0.214688
vt 0.825193 0.214688
vt 0.825193 0.214688
vt 0.825193 0.214688
vt 0.825193 0.214688
vt 0.825193 0.214688
vt 0.825193 0.214688
vt 0.825193 0.214688
vt 0.825193 0.214688
vt 0.825193 0.214688
vt 0.825193 0.214688
vt 0.825193 0.214688
vn -0.0003 0.9265 -0.3762
vn 0.0048 0.9330 -0.3597
vn -0.0028 0.9976 -0.0699
vn -0.0067 0.9983 -0.0583
vn -0.0096 0.9989 -0.0458
vn 0.0105 0.9643 0.2646
vn 0.0189 0.9998 -0.0056
vn 0.0280 0.9991 0.0309
vn 0.0249 0.9471 -0.3201
vn -0.0321 0.9994 -0.0089
vn -0.0089 0.9988 0.0471
vn 0.0308 0.9397 -0.3407
vn 0.0255 0.9996 -0.0145
vn 0.0528 0.9980 0.0336
vn 0.0612 0.9981 -0.0030
vn -0.0045 0.9261 -0.3772
vn -0.2639 0.9419 -0.2080
vn -0.2957 0.9551 -0.0169
vn -0.0502 0.9987 -0.0078
vn -0.0090 0.9283 -0.3717
vn 0.0059 0.9998 -0.0212
vn 0.0319 0.9977 0.0606
vn 0.0112 0.9978 0.0650
vn -0.0357 0.9993 0.0100
vn -0.0513 0.9594 0.2773
vn -0.0539 0.9975 -0.0446
vn 0.0016 1.0000 0.0030
vn 0.0395 0.9975 0.0586
vn 0.0165 0.9991 -0.0398
vn -0.0222 0.9933 0.1137
vn -0.2012 0.9409 0.2725
vn 0.0037 0.9323 0.3617
vn 0.0483 0.9597 0.2768
vn -0.0090 0.9851 0.1717
vn -0.0302 0.9490 0.3139
vn 0.0125 0.9293 0.3692
vn 0.0919 0.9957 0.0098
vn 0.0253 0.9909 0.1319
vn 0.1116 0.9935 0.0206
vn 0.2237 0.9365 0.2699
vn 0.0274 0.9544 -0.2973
vn 0.1840 0.9437 -0.2750
vn 0.0068 0.9997 -0.0218
vn 0.0147 0.9563 0.2920
vn -0.0242 0.9886 0.1487
vn 0.3114 0.9490 0.0496
vn 0.3136 0.9484 -0.0459
vn 0.2390 0.9674 -0.0832
vn 0.0175 0.9983 -0.0551
vn -0.3259 0.9452 0.0189
vn -0.0034 0.8634 0.5045
vn 0.3348 0.8901 0.3094
vn -0.5091 0.8600 -0.0352
vn -0.4802 0.8761 0.0433
vn 0.0251 0.8383 -0.5447
vn -0.0641 0.8785 0.4735
vn 0.4028 0.9103 -0.0952
vn 0.0156 0.8727 0.4881
vn 0.0926 0.8390 -0.5362
vn 0.4794 0.8753 0.0641
vn 0.0450 0.8733 0.4851
vn 0.0132 0.8270 -0.5620
vn 0.0160 0.8279 -0.5606
vn 0.2707 0.9162 -0.2953
vn -0.2947 0.8899 0.3483
vn 0.0177 0.8745 0.4848
vn -0.0078 0.7836 -0.6212
vn -0.0443 0.8151 -0.5776
vn -0.3165 0.8987 -0.3037
usemtl rpgpp_lt_mat_a.027
s 1
f 10/1/1 9/2/2 14/3/3
f 14/3/3 9/2/2 5/4/4
f 17/5/5 10/1/1 14/3/3
f 24/6/6 16/7/7 48/8/8
f 19/9/9 18/10/10 4/11/11
f 18/10/10 12/12/12 16/7/7
f 20/13/13 4/11/11 27/14/14
f 8/15/15 7/16/16 20/13/13
f 6/17/17 50/18/18 22/19/19
f 13/20/20 22/19/19 5/4/4
f 15/21/21 23/22/22 3/23/23
f 15/21/21 14/3/3 23/22/22
f 17/5/5 15/21/21 3/23/23
f 26/24/24 18/10/10 1/25/25
f 4/11/11 18/10/10 27/14/14
f 29/26/26 25/27/27 42/28/28
f 25/27/27 27/14/14 26/24/24
f 27/14/14 47/29/29 8/15/15
f 35/30/30 22/19/19 33/31/31
f 23/22/22 34/32/32 2/33/33
f 37/34/34 23/22/22 2/33/33
f 42/28/28 38/35/35 40/36/36
f 28/37/37 42/28/28 41/38/38
f 29/26/26 42/28/28 28/37/37
f 31/39/39 41/38/38 30/40/40
f 17/5/5 11/41/41 10/1/1
f 5/4/4 9/2/2 13/20/20
f 17/5/5 14/3/3 15/21/21
f 24/6/6 48/8/8 17/5/5
f 16/7/7 12/12/12 11/41/41
f 19/9/9 12/12/12 18/10/10
f 20/13/13 19/9/9 4/11/11
f 27/14/14 8/15/15 20/13/13
f 7/16/16 19/9/9 20/13/13
f 47/29/29 21/42/42 7/16/16 8/15/15
f 22/19/19 13/20/20 6/17/17
f 5/4/4 22/19/19 23/22/22
f 23/22/22 14/3/3 5/4/4
f 3/23/23 23/22/22 37/34/34
f 17/5/5 3/23/23 24/6/6
f 1/25/25 16/7/7 24/6/6
f 1/25/25 18/10/10 16/7/7
f 27/14/14 18/10/10 26/24/24
f 29/26/26 27/14/14 25/27/27
f 28/37/37 43/43/43 29/26/26
f 29/26/26 47/29/29 27/14/14
f 34/32/32 35/30/30 33/31/31
f 23/22/22 35/30/30 34/32/32
f 23/22/22 22/19/19 35/30/30
f 36/44/44 37/34/34 2/33/33
f 24/6/6 3/23/23 36/44/44
f 3/23/23 37/34/34 36/44/44
f 38/35/35 39/45/45 1/25/25
f 42/28/28 25/27/27 38/35/35
f 38/35/35 25/27/27 39/45/45
f 39/45/45 25/27/27 26/24/24
f 39/45/45 26/24/24 1/25/25
f 41/38/38 42/28/28 40/36/36
f 31/39/39 28/37/37 41/38/38
f 30/40/40 32/46/46 31/39/39
f 30/40/40 41/38/38 40/36/36
f 43/43/43 44/47/47 46/48/48 45/49/49
f 45/49/49 46/48/48 21/42/42
f 43/43/43 45/49/49 47/29/29 29/26/26
f 45/49/49 21/42/42 47/29/29
f 31/39/39 43/43/43 28/37/37
f 31/39/39 32/46/46 44/47/47 43/43/43
f 16/7/7 11/41/41 48/8/8
f 48/8/8 11/41/41 17/5/5
f 49/50/50 33/31/31 22/19/19
f 50/18/18 49/50/50 22/19/19
f 30/40/40 40/36/36 66/51/51 62/52/52
f 49/50/50 50/18/18 69/53/53 68/54/54
f 10/1/1 11/41/41 56/55/55
f 38/35/35 1/25/25 51/56/56 66/51/51
f 46/48/48 44/47/47 67/57/57
f 1/25/25 24/6/6 61/58/58 51/56/56
f 11/41/41 12/12/12 57/59/59 56/55/55
f 32/46/46 30/40/40 62/52/52 63/60/60
f 44/47/47 32/46/46 63/60/60 67/57/57
f 24/6/6 36/44/44 65/61/61 61/58/58
f 19/9/9 7/16/16 54/62/62 59/63/63
f 7/16/16 21/42/42 60/64/64 54/62/62
f 34/32/32 33/31/31 64/65/65 52/66/66
f 13/20/20 9/2/2 55/67/67 58/68/68
f 50/18/18 6/17/17 53/69/69 69/53/53
f 6/17/17 13/20/20 58/68/68 53/69/69
f 21/42/42 46/48/48 67/57/57 60/64/64
f 9/2/2 10/1/1 56/55/55 55/67/67
f 36/44/44 2/33/33 52/66/66 65/61/61
f 2/33/33 34/32/32 52/66/66
f 33/31/31 49/50/50 68/54/54 64/65/65
f 12/12/12 19/9/9 59/63/63 57/59/59
f 40/36/36 38/35/35 66/51/51
